<?xml version="1.0" encoding="utf-8"?>
<!-- Generator: Adobe Illustrator 16.0.0, SVG Export Plug-In . SVG Version: 6.00 Build 0)  -->
<!DOCTYPE svg PUBLIC "-//W3C//DTD SVG 1.1//EN" "http://www.w3.org/Graphics/SVG/1.1/DTD/svg11.dtd">
<svg version="1.1" id="Layer_1" xmlns="http://www.w3.org/2000/svg" xmlns:xlink="http://www.w3.org/1999/xlink" x="0px" y="0px"
	 width="1584px" height="1584px" viewBox="0 0 1584 1584" enable-background="new 0 0 1584 1584" xml:space="preserve">
<path opacity="0.98" fill="#DFAF98" enable-background="new    " d="M747.985,1583.19c-76.799,8.279-290.349-48.819-329.615-85.653
	c-87.749-82.317-178.197-385.017-160.06-554.144l-15.809-94.753l-6.065-276.943l173.848-296.483l206.192-95.684l187.327-22.913
	l199.445,13.48l99.732,37.732l117.245,152.286l-1.351,171.151v29.646c0,0,16.174,10.785,14.822,42.453
	c-1.345,31.672-18.864,148.917-18.864,148.917l36.386,45.15l10.106,35.708l-32.343,31.669l-36.388,30.325l-6.062,45.822
	c0,0,4.043,33.685-13.48,39.077l-17.52,39.086l-64.35,106.465c0,0-23.752,52.367-28.468,107.958l-52.73,144.052
	c0,0-18.865,75.47-92.986,79.51l-57.553,20.545C859.445,1477.65,786.53,1579.034,747.985,1583.19z"/>
<path opacity="0.49" fill="#906A59" enable-background="new    " d="M752.585,349.335L638.036,575.74
	c0,0-53.906,118.592,64.688,324.783l94.334,179.238l123.99-152.284c0,0,57.951-94.336,185.974-16.172l79.511,46.43
	c0,0-1.579,19.145-13.457,22.365c-2.407,0.649,5.496-10.93-4.861,10.863l-81.403-48.661c0,0-129.378-88.944-285.71,203.495
	l2.702,67.383c0,0,31.915,129.542,110.084,35.207c0,0,32.595,9.77,54.83,24.258c0,0,30.07,17.182,48.515,19.456
	c18.447,2.275,26.341-6.656,26.341-6.656l-38.408,105.792c0,0-23.754,64.178-88.166,65.868c-0.962,0.021-1.662,0.612-2.402,0.817
	c-2.224,0.624-3.729,1.398-5.117,1.895c-3.577,1.286-6.46,2.198-18.571,6.694c-9.817,3.648-19.078,5.877-31.462,11.139
	c-0.023,0.009-0.045,0.017-0.069,0.024c-24.088,6.44-48.551,0.187-85.227-7.094c0,0-153.633-32.344-215.625-195.409
	c0,0-109.161-390.816-83.552-464.264c25.603-73.448,101.073-236.513-74.124-260.771c-143.233-19.836-107.81,349.046-114.55,375.994
	l-27.988,17.263C258.31,943.394,63.939,83.845,752.585,349.335z"/>
<g opacity="0.52">
	<path fill="#6B422B" d="M907.57,561.591c0,0-42.454,3.706-51.892,6.399c0,0-37.736,13.143-39.076,4.381
		c0,0,28.971-29.651,90.968-35.714"/>
	<path fill="#6B422B" d="M907.57,561.591c-7.763,0.782-15.518,1.629-23.263,2.553c-7.743,0.918-15.497,1.825-23.167,3.142
		c-1.898,0.352-3.852,0.688-5.634,1.256c-1.849,0.645-3.708,1.245-5.575,1.825c-3.734,1.155-7.495,2.226-11.299,3.158
		c-3.801,0.923-7.641,1.739-11.56,2.175c-1.96,0.203-3.944,0.331-5.954,0.128c-1.005-0.111-2.026-0.299-3.007-0.768
		c-0.486-0.235-0.965-0.56-1.346-1.01c-0.384-0.445-0.638-1.019-0.723-1.592l-0.043-0.287l0.197-0.192
		c3.021-2.949,6.334-5.447,9.73-7.854c3.408-2.385,6.939-4.586,10.557-6.628c7.24-4.071,14.812-7.547,22.612-10.384
		c7.798-2.843,15.796-5.11,23.898-6.857c8.113-1.707,16.328-2.885,24.574-3.597c-8.229,0.901-16.401,2.272-24.449,4.157
		c-8.056,1.846-15.991,4.21-23.711,7.138c-7.713,2.937-15.245,6.366-22.407,10.455c-3.582,2.042-7.074,4.24-10.438,6.617
		c-3.351,2.377-6.632,4.932-9.56,7.742l0.153-0.479c0.107,0.786,0.656,1.394,1.443,1.771c0.781,0.38,1.707,0.568,2.634,0.674
		c1.873,0.198,3.809,0.087,5.723-0.105c3.842-0.409,7.654-1.2,11.434-2.101c3.779-0.91,7.527-1.958,11.251-3.093
		c1.86-0.572,3.716-1.163,5.562-1.771c1.942-0.591,3.856-0.883,5.792-1.217c7.728-1.219,15.488-2.043,23.252-2.835
		C892.018,562.862,899.792,562.194,907.57,561.591z"/>
</g>
<path fill="#232323" d="M433.278,555.524l-26.027-22.234c0,0,114.886-54.579,189.009-61.319
	c74.119-6.736,297.832-47.166,297.832-47.166l154.979,52.558c0,0,57.943,24.258,102.417,86.248l11.459,10.108
	c0,0,24.257,7.41,41.099,31.667l8.097,6.74c0,0,94.329,4.714,108.479,90.967c0,0,10.105,26.281-2.021,78.839
	c0,0-14.993,65.191-60.179,77.7l-33.921,8.844c0,0,18.003-16.425,20.567-19.32c7.717-8.701,2.789-26.632-6.48-43.474
	l-57.423-110.738c0,0-3.603-11.561-1.96-27.227l0.254-21.729c0,0-6.065-18.701-19.205-4.55c0,0-45.065,90.462-70.5,93.747
	c0,0-57.358,8.338-92.227-5.687c0,0-90.967-37.523-95.515-109.285l0.504-138.472l-31.334-7.075l-320.069,73.448
	C551.111,548.114,457.536,523.856,433.278,555.524z"/>
<path fill="#2F2820" d="M260.694,928.829c0,0-31.001-12.134-33.693-235.842c0,0-40.43-115.901,75.47-375.996
	c0,0,5.388-29.648,33.689-37.733c0,0-1.349-52.558,64.688-72.773c0,0,37.733-45.823,133.417-43.126
	c0,0,265.495-111.857,295.138-51.214c0,0,79.51-5.383,86.254,5.395c0,0,95.68-84.904,216.965,21.561
	c0,0,160.377,109.16,173.85,234.492c0,0-8.845,198.717-76.227,204.106c0,0-4.67-14.718-16.764-19.476
	c0,0,36.388-118.595-129.374-253.359c0,0-29.649,1.35-43.12-9.434c0,0-265.485-122.635-243.929,64.687c0,0,4.043,80.86-149.59,4.043
	c0,0-121.289-83.555-319.393,130.721c0,0-52.559,203.496-53.905,214.277C274.169,709.157,225.654,729.377,260.694,928.829z"/>
<linearGradient id="SVGID_1_" gradientUnits="userSpaceOnUse" x1="84.1001" y1="828.792" x2="294.1436" y2="828.792" gradientTransform="matrix(1 0 0 -1 144 1495)">
	<stop  offset="0" style="stop-color:#E19485"/>
	<stop  offset="1" style="stop-color:#DFAF98"/>
</linearGradient>
<path fill="url(#SVGID_1_)" d="M437.234,558.222c0,0-83.552-87.599-137.46-51.213c0,0-105.283,53.065-60.645,146.894
	c0,0,48.517,107.815,97.031,144.199c0,0,113.204,79.512,101.074,2.697"/>
<g opacity="0.15">
	<path fill="#2F2820" d="M1050.082,779.909c-6.771,9.632-14.334,18.705-22.31,27.381c-8.027,8.637-16.532,16.815-25.193,24.799
		c-17.342,15.941-35.442,31.033-51.877,47.784c-16.456,16.711-30.891,35.38-43.447,55.205c-6.287,9.911-12.051,20.163-17.226,30.709
		c-5.244,10.515-9.824,21.361-13.793,32.441c3.479-11.247,7.865-22.214,12.782-32.925c4.99-10.685,10.606-21.077,16.745-31.153
		c6.11-10.096,12.897-19.777,20.111-29.121c7.228-9.333,14.952-18.29,23.196-26.753c16.688-16.735,34.775-31.851,52.333-47.485
		c8.787-7.809,17.392-15.819,25.561-24.268C1035.19,798.133,1042.898,789.234,1050.082,779.909z"/>
</g>
<g opacity="0.25">
	<path fill="#2F2820" d="M1054.466,806.191c-2.029,1.672-3.776,3.659-5.128,5.872c-1.342,2.22-2.258,4.669-2.781,7.188
		c-1.084,5.049-0.705,10.303,0.304,15.357c1.054,5.064,2.725,10.006,4.823,14.754c1.05,2.375,2.176,4.716,3.411,6.999l0.944,1.704
		c0.286,0.479,0.679,1.107,1.013,1.611c0.704,1.065,1.446,2.127,2.229,3.144c3.096,4.109,6.832,7.71,11.012,10.734
		c4.158,3.066,8.755,5.525,13.466,7.771c4.725,2.223,9.584,4.22,14.418,6.296c4.812,2.124,9.645,4.257,14.231,6.841
		c-9.594-4.331-19.667-7.307-29.386-11.513c-4.861-2.082-9.603-4.563-13.991-7.638c-4.376-3.082-8.306-6.84-11.567-11.109
		c-0.812-1.072-1.569-2.17-2.305-3.306c-0.388-0.593-0.688-1.08-1.073-1.731l-0.955-1.752c-1.242-2.351-2.405-4.745-3.429-7.2
		c-2.031-4.912-3.706-10.006-4.586-15.28c-0.889-5.249-1.036-10.74,0.359-15.945C1046.865,813.803,1050.06,809.101,1054.466,806.191
		z"/>
</g>
<g opacity="0.25">
	<path fill="#2F2820" d="M404.89,599.997c-0.016-9.313-1.764-18.631-5.477-27.117c-3.7-8.488-9.374-16.04-16.325-22.074
		c-6.924-6.073-15.06-10.704-23.713-13.804c-8.658-3.103-17.838-4.711-27.011-4.791c-9.169-0.069-18.347,1.391-26.95,4.448
		c-8.595,3.066-16.578,7.847-23.134,14.151c-6.575,6.288-11.65,14.068-14.98,22.541c-1.666,4.225-2.954,8.658-3.796,13.097
		c-0.839,4.529-1.429,9.096-1.775,13.678c-0.724,9.159-0.407,18.401,1.09,27.464c1.484,9.066,4.12,17.938,7.687,26.426
		c3.564,8.496,8.037,16.611,13.089,24.354c5.069,7.735,10.661,15.141,16.54,22.323c11.792,14.352,24.781,27.73,37.565,41.3
		c6.362,6.816,12.691,13.675,18.803,20.725c6.121,7.042,12,14.301,17.395,21.908c-11.414-14.755-24.314-28.223-37.409-41.47
		c-13.02-13.324-26.242-26.514-38.376-40.773c-6.065-7.124-11.832-14.538-16.994-22.388c-5.174-7.835-9.785-16.085-13.483-24.763
		c-3.702-8.672-6.466-17.777-8.044-27.103c-1.591-9.323-1.982-18.845-1.273-28.267c0.381-4.709,1.014-9.396,1.898-14.026
		c0.922-4.71,2.277-9.26,4.05-13.696c3.534-8.849,8.92-17.015,15.867-23.582c6.928-6.589,15.323-11.544,24.294-14.687
		c8.974-3.176,18.524-4.532,27.983-4.285c9.463,0.241,18.873,2.056,27.71,5.392c8.828,3.338,17.111,8.211,24.083,14.584
		c6.954,6.375,12.527,14.252,16.043,22.965c1.764,4.351,3.03,8.893,3.796,13.507C404.792,590.656,405.052,595.34,404.89,599.997z"/>
</g>
<g opacity="0.25">
	<path fill="#2F2820" d="M932.16,1377.258c0.096,4.337-0.109,8.626-0.493,12.909c-0.36,4.284-0.95,8.554-1.772,12.793
		c-0.83,4.236-1.896,8.447-3.373,12.534c-1.454,4.084-3.284,8.086-5.812,11.624c1.24-4.154,2.298-8.245,3.247-12.375
		c0.922-4.13,1.763-8.273,2.576-12.44c0.821-4.163,1.604-8.347,2.5-12.527C929.912,1385.591,930.853,1381.396,932.16,1377.258z"/>
</g>
<g opacity="0.25">
	<path fill="#2F2820" d="M1150.901,881.994c2.82-0.475,5.556-1.316,8.104-2.489c2.511-1.176,5.011-2.694,6.573-4.755
		c0.776-1.026,1.082-2.168,0.587-2.935c-0.241-0.428-0.619-0.723-1.225-1.203c-0.511-0.401-1.086-0.807-1.656-1.178
		c-2.287-1.516-4.8-2.756-7.372-3.856c-5.168-2.164-10.552-3.903-16.019-5.319c-5.461-1.417-11-2.646-16.555-3.419l-2.078-0.262
		c-0.856-0.114-1.521-0.261-2.245-0.403l-4.202-0.886c-2.785-0.592-5.564-1.164-8.35-1.676c-5.554-0.997-11.176-1.996-16.674-1.989
		c-1.357,0.024-2.718,0.086-3.955,0.357c-1.232,0.252-2.335,0.788-2.632,1.442c-0.14,0.266-0.214,0.846-0.136,1.354
		c0.077,0.534,0.279,1.094,0.559,1.649c0.554,1.117,1.412,2.182,2.353,3.17c1.911,1.962,4.149,3.71,6.486,5.291
		c2.352,1.566,4.772,3.085,7.396,4.22c-2.786-0.709-5.424-1.913-7.987-3.232c-2.543-1.365-5.03-2.885-7.257-4.861
		c-1.105-0.993-2.174-2.084-3.014-3.461c-0.792-1.374-1.49-3.138-0.733-5.192c0.431-0.979,1.224-1.686,1.988-2.122
		c0.774-0.453,1.561-0.727,2.329-0.928c1.544-0.396,3.047-0.537,4.534-0.599c2.974-0.099,5.88,0.122,8.763,0.424
		c2.878,0.314,5.733,0.72,8.565,1.227c2.833,0.497,5.646,1.053,8.451,1.623l4.184,0.846c0.676,0.132,1.41,0.268,1.969,0.347
		l2.167,0.289c5.742,0.871,11.372,2.112,16.923,3.689c5.535,1.618,11.031,3.445,16.279,5.966c2.622,1.259,5.2,2.657,7.597,4.405
		c0.601,0.445,1.169,0.896,1.752,1.412c0.479,0.431,1.233,1.073,1.63,1.943c0.433,0.863,0.47,1.941,0.197,2.794
		c-0.264,0.866-0.73,1.566-1.242,2.172c-1.04,1.203-2.293,2.057-3.572,2.795c-1.287,0.727-2.627,1.321-4.002,1.795
		C1156.631,881.383,1153.766,881.906,1150.901,881.994z"/>
</g>
<g opacity="0.25">
	<path fill="#2F2820" d="M402.198,639.081c-5.058-0.151-10.002,1.083-14.646,2.896c-4.665,1.792-9.093,4.154-13.313,6.817
		c-4.205,2.689-8.233,5.663-11.994,8.942c-3.773,3.262-7.327,6.779-10.536,10.583c-3.227,3.783-6.135,7.845-8.47,12.205
		c-2.352,4.338-4.098,9.033-4.669,13.891c-0.564,4.84,0.316,9.874,2.921,14.073c2.52,4.267,6.533,7.518,10.841,10.101
		c-4.554-2.134-8.81-5.234-11.781-9.495c-1.468-2.129-2.542-4.546-3.173-7.079c-0.628-2.534-0.778-5.174-0.582-7.766
		c0.394-5.21,2.203-10.167,4.531-14.734c2.372-4.567,5.357-8.765,8.644-12.674c6.659-7.753,14.567-14.388,23.345-19.564
		c4.386-2.584,9.02-4.777,13.868-6.35c2.431-0.763,4.912-1.372,7.431-1.727C397.129,638.833,399.693,638.745,402.198,639.081z"/>
</g>
<g opacity="0.25">
	<path fill="#2F2820" d="M408.933,644.47c0.279,3.683,0.213,7.396-0.133,11.086c-0.381,3.687-1.091,7.347-2.148,10.914
		c-2.115,7.131-5.769,13.833-10.696,19.443c-4.974,5.568-11.178,10.016-18.009,12.966c-3.416,1.475-6.967,2.612-10.583,3.43
		c-3.623,0.782-7.3,1.288-10.99,1.459c7.329-0.832,14.562-2.6,21.214-5.689c6.646-3.068,12.71-7.415,17.514-12.922
		c4.893-5.431,8.456-11.988,10.716-18.947C408.089,659.238,409.001,651.847,408.933,644.47z"/>
</g>
<g opacity="0.25">
	<path fill="#2F2820" d="M421.062,686.245c0.118,2.972-0.116,5.973-0.742,8.907c-0.664,2.924-1.767,5.767-3.315,8.363
		c-3.106,5.229-7.991,9.154-13.217,12.056c-5.3,2.848-10.967,4.855-16.681,6.528c-2.863,0.826-5.74,1.589-8.616,2.344
		c-2.886,0.718-5.76,1.471-8.636,2.232c5.61-1.993,11.354-3.579,16.994-5.416c5.633-1.838,11.242-3.822,16.39-6.689
		c5.172-2.769,9.865-6.563,13.023-11.517C419.461,698.119,420.843,692.169,421.062,686.245z"/>
</g>
<g opacity="0.25">
	<path fill="#2F2820" d="M422.413,714.547c1.121,1.317,2.061,2.784,2.93,4.281c0.873,1.497,1.681,3.033,2.44,4.595
		c1.478,3.14,2.756,6.389,3.674,9.774c0.463,1.692,0.84,3.421,1.032,5.2c0.187,1.775,0.246,3.611-0.182,5.491
		c-0.207,0.921-0.605,1.918-1.192,2.703c-0.534,0.765-1.101,1.469-1.743,2.142c-1.272,1.338-2.82,2.473-4.554,3.22
		c-3.517,1.497-7.42,1.277-10.851,0.369c-3.463-0.947-6.67-2.452-9.684-4.205c-3.027-1.739-5.878-3.721-8.664-5.761l-8.249-6.243
		c6.038,3.359,11.708,7.334,17.765,10.438c3.031,1.524,6.134,2.919,9.358,3.673c3.189,0.779,6.554,0.895,9.426-0.371
		c1.438-0.603,2.737-1.527,3.848-2.668c0.556-0.567,1.076-1.204,1.535-1.845c0.456-0.594,0.704-1.23,0.913-1.974
		c0.391-1.477,0.414-3.138,0.287-4.78c-0.139-1.65-0.412-3.313-0.771-4.964c-0.738-3.299-1.762-6.567-2.974-9.763
		C425.568,720.651,424.201,717.493,422.413,714.547z"/>
</g>
<g opacity="0.25">
	<path fill="#2F2820" d="M711.484,1206.441c0.507,7.196,1.274,14.366,2.305,21.491c1.054,7.122,2.373,14.202,3.992,21.21
		c3.142,14.032,7.358,27.811,12.554,41.198c10.396,26.771,24.352,52.134,41.397,75.213c8.489,11.566,17.767,22.551,27.788,32.814
		c9.986,10.296,20.784,19.799,32.273,28.384c11.509,8.544,23.832,16.066,36.991,21.796c13.095,5.797,27.171,9.753,41.622,10.175
		c-7.218,0.185-14.458-0.645-21.531-2.187c-7.078-1.537-14.011-3.744-20.742-6.441c-13.44-5.479-26.061-12.83-37.89-21.211
		c-23.646-16.859-44.026-38.013-61.269-61.298c-17.156-23.371-31.193-49.081-41.095-76.324
		c-4.942-13.615-8.912-27.584-11.733-41.775C713.431,1235.279,711.735,1220.872,711.484,1206.441z"/>
</g>
<g opacity="0.25">
	<path fill="#2F2820" d="M373.897,826.404c3.754,0.992,7.48,2.085,11.226,3.097c3.736,1.044,7.479,2.057,11.251,2.928
		c3.774,0.859,7.558,1.662,11.381,2.222c1.898,0.274,3.854,0.54,5.723,0.663c1.933,0.075,3.855,0.104,5.778,0.031
		c3.821-0.125,7.712-0.533,11.169-2.06c1.711-0.771,3.282-1.848,4.495-3.267c1.225-1.409,2.104-3.104,2.738-4.892
		c1.247-3.604,1.597-7.501,1.84-11.353c0.259-3.863,0.297-7.747,0.431-11.628c0.125,3.881,0.198,7.763,0.129,11.653
		c-0.135,3.879-0.375,7.816-1.568,11.607c-0.603,1.883-1.497,3.723-2.822,5.255c-1.3,1.548-3,2.734-4.813,3.568
		c-3.668,1.652-7.667,2.093-11.563,2.254c-1.957,0.058-3.918,0.011-5.862-0.083c-2-0.149-3.894-0.43-5.833-0.726
		c-3.851-0.614-7.671-1.399-11.433-2.398C388.628,831.325,381.263,828.856,373.897,826.404z"/>
</g>
<path fill="#AD6D69" d="M876.575,1091.893c0,0-16.175,118.59,74.115,162.394l66.037,22.234c0,0,26.61,15.834,44.976-37.231
	l6.913-29.477c0,0,10.776-66.707,28.97-92.316l45.821-79.508c0,0,26.954-29.653-5.39-53.912l-47.168-24.255
	c0,0-64.686-24.93-102.422,16.848l-78.165,68.054C910.263,1044.723,879.268,1067.634,876.575,1091.893z"/>
<path opacity="0.5" fill="#301D1B" enable-background="new    " d="M981.683,1002.949c0,0-56.93,36.048-76.134,66.034
	c0,0-24.765,26.528-6.319,80.353c0,0,11.958,29.986,29.898,48.685c0,0,44.139,31.335,86.589,29.311c0,0,24.004-15.96,10.55-38.197
	c0,0,0.442-15.29,15.39-50.917c0,0,21.556-44.346,38.178-57.99c0,0,39.647-21.017,21.796-76.604
	C1101.63,1003.623,1038.964,944.325,981.683,1002.949z"/>
<linearGradient id="SVGID_2_" gradientUnits="userSpaceOnUse" x1="827.0781" y1="449.251" x2="956.6201" y2="449.251" gradientTransform="matrix(1 0 0 -1 144 1495)">
	<stop  offset="0" style="stop-color:#E19485;stop-opacity:0"/>
	<stop  offset="0.2221" style="stop-color:#E09B8A;stop-opacity:0.2221"/>
	<stop  offset="1" style="stop-color:#DFAF98"/>
</linearGradient>
<path opacity="0.75" fill="url(#SVGID_2_)" enable-background="new    " d="M1049.07,1037.312c0,0-85.24,18.867-77.494,24.255
	c7.754,5.391,100.402,2.025,100.402,2.025l28.642-5.73l-16.843-30.994L1049.07,1037.312z"/>
<path fill="#EBDFD1" d="M979.836,1003.346c0,0,18.572,10.346,22.738,12.407c4.172,2.059,25.396-2.15,30.326,1.346
	c4.926,3.494,7.707,8.42,11.998,11.326c4.3,2.906,22.114,0.759,24.389,2.147c2.272,1.39,0.505,7.33,4.041,9.098
	c3.537,1.767,5.599,4.294,8.253,6.823c2.655,2.527,1.729,10.864,2.867,13.392c1.136,2.526,16.298-2.275,16.298-2.275
	s17.056-30.066,3.916-43.207c0,0,2.864-14.316-19.875-22.91c0,0-22.916-14.485-44.978-14.149
	C1039.81,977.343,1012.014,972.118,979.836,1003.346z"/>
<g opacity="0.05">
	<path d="M1084.787,991.492c-0.535,3.675-1.911,7.171-3.322,10.58c-1.422,3.419-3.039,6.739-4.574,10.084
		c-1.562,3.335-3.06,6.689-4.356,10.116c-0.646,1.713-1.219,3.456-1.658,5.235c-0.478,1.77-0.784,3.584-0.918,5.427
		c-0.218-3.712,0.633-7.42,1.747-10.949c1.116-3.547,2.607-6.952,4.149-10.309c1.568-3.351,3.207-6.651,4.813-9.962
		c0.801-1.657,1.569-3.327,2.268-5.024C1083.668,995.002,1084.289,993.272,1084.787,991.492z"/>
</g>
<g opacity="0.05">
	<path d="M1040.646,979.027c-0.2,3.243-0.717,6.457-1.273,9.649c-0.553,3.197-1.236,6.367-1.928,9.532
		c-0.717,3.158-1.448,6.312-2.237,9.451l-1.16,4.715c-0.41,1.567-0.772,3.144-1.147,4.724c0.273-3.24,0.854-6.439,1.448-9.625
		c0.59-3.188,1.293-6.351,1.982-9.512l2.185-9.46c0.378-1.573,0.737-3.15,1.084-4.729
		C1039.98,982.198,1040.305,980.612,1040.646,979.027z"/>
</g>
<path fill="#864B45" d="M1009.654,1135.689c0,0-22.239-78.837-64.689-86.924l-14.147,1.011c0,0-62.162,26.784-28.303,99.053
	l45.988,39.421c0,0,26.617,16.338,46.076-10.025C994.579,1178.225,1020.266,1165.001,1009.654,1135.689z"/>
<g opacity="0.05">
	<path d="M917.007,1149.84c0.756-6.942,0.917-13.922,0.66-20.878c-0.259-6.958-0.841-13.905-1.565-20.843
		c-0.634-6.946-1.401-13.893-1.816-20.872c-0.2-3.49-0.339-6.987-0.365-10.484c0.014-3.495,0.092-6.992,0.385-10.473
		c-0.093,6.984,0.26,13.949,0.857,20.892c0.594,6.944,1.35,13.879,2.074,20.827c0.631,6.954,1.234,13.931,1.305,20.931
		c0.029,3.5-0.045,7.002-0.274,10.493C918.002,1142.921,917.627,1146.4,917.007,1149.84z"/>
</g>
<path fill="#EBDFD1" d="M902.515,1149.232c-1.767,1.114-2.358,29.649,26.613,49.19c28.977,19.539,87.6,36.723,87.6,36.723
	s24.765-26.006,9.604-46.223c0,0-52.814,6.196-54.077,3.769c-1.261-2.42-4.801-6.061-6.316-7.979
	c-1.517-1.922-9.221-2.25-10.864-4.172c-1.643-1.917-6.823-8.188-10.361-11.117c-3.539-2.928-18.508-0.103-20.022-2.778
	c-1.517-2.677-1.581-9.934-4.991-13.37C916.288,1149.84,904.285,1148.119,902.515,1149.232z"/>
<g opacity="0.05">
	<path fill="#2F2820" d="M914.393,1185.595c0.537-3.609,2.119-6.987,3.943-10.118c0.95-1.552,1.949-3.07,3.02-4.535
		c1.07-1.466,2.178-2.9,3.335-4.297c-1.929,3.072-4.047,6.009-5.864,9.123C916.958,1178.849,915.391,1182.104,914.393,1185.595z"/>
</g>
<g opacity="0.05">
	<path fill="#2F2820" d="M963.024,1216.747c0.912-4.363,2.371-8.595,3.962-12.754c1.652-4.137,3.438-8.214,5.427-12.201
		c-1.553,4.176-3.311,8.261-4.896,12.409C965.868,1208.328,964.392,1212.511,963.024,1216.747z"/>
</g>
<g opacity="0.05">
	<path fill="#2F2820" d="M942.564,1206.567c0.644-2.339,1.401-4.647,2.281-6.911c0.869-2.268,1.869-4.484,2.939-6.667
		c1.105-2.163,2.283-4.294,3.6-6.337c1.308-2.046,2.747-4.011,4.32-5.858c-1.405,1.977-2.71,4.015-3.948,6.09
		c-1.229,2.077-2.402,4.19-3.464,6.36c-1.102,2.147-2.092,4.354-3.044,6.577C944.305,1202.046,943.409,1204.294,942.564,1206.567z"
		/>
</g>
<g opacity="0.05">
	<path fill="#2F2820" d="M987.398,1225.382c1.074-2.716,1.914-5.506,2.68-8.314c0.754-2.813,1.445-5.643,2.112-8.484
		c0.712-2.827,1.4-5.667,2.248-8.467c0.841-2.799,1.831-5.562,3.1-8.192c-1.075,2.713-1.913,5.506-2.679,8.313
		c-0.756,2.812-1.446,5.643-2.113,8.48c-0.715,2.831-1.399,5.67-2.25,8.468C989.656,1219.985,988.668,1222.749,987.398,1225.382z"/>
</g>
<g opacity="0.25">
	<path d="M441.278,850.664c0.236,12.472,0.665,24.935,1.216,37.394c0.553,12.458,1.146,24.914,1.797,37.372
		c0.558,12.46,1.165,24.922,1.535,37.394c0.176,6.236,0.319,12.475,0.401,18.713c0.041,6.239,0.067,12.476-0.062,18.715
		c-0.129-6.237-0.265-12.472-0.498-18.703c-0.194-6.232-0.437-12.464-0.72-18.692c-0.551-12.458-1.148-24.915-1.795-37.371
		c-0.556-12.462-1.167-24.924-1.532-37.396C441.251,875.618,441.043,863.138,441.278,850.664z"/>
</g>
<g>
	<path d="M912.963,441.651c13.414,6.062,25.992,15.157,39.419,20.211"/>
	<path fill="#D3D3D3" d="M912.963,441.651c3.662,0.876,7.152,2.264,10.533,3.816c3.391,1.537,6.659,3.292,9.873,5.097
		c3.209,1.811,6.366,3.68,9.506,5.579c3.153,1.881,6.304,3.75,9.507,5.719c-3.714-0.637-7.283-1.873-10.715-3.335
		c-3.449-1.446-6.757-3.165-9.981-4.98c-3.222-1.826-6.368-3.744-9.465-5.74C919.112,445.827,916.034,443.819,912.963,441.651z"/>
</g>
<g opacity="0.25">
	<path d="M1154.189,669.739c1.73-0.221,3.527-0.12,5.249,0.309c1.73,0.412,3.384,1.136,4.9,2.062
		c3.022,1.884,5.486,4.604,7.03,7.735c-2.295-2.621-4.752-4.996-7.629-6.763C1160.881,671.287,1157.649,670.182,1154.189,669.739z"
		/>
</g>
<g opacity="0.5">
	<g>
		<g>
			<path opacity="0.1797" fill="#43362B" enable-background="new    " d="M1004.183,266.798
				c-5.979-5.172-11.302-10.685-16.472-16.663c-7.534-8.709-13.659-18.588-19.414-28.518c-7.918-14.124-13.446-29.276-16.589-45.455
				c-0.645-4.088-0.94-8.197-0.889-12.335c0.033-3.86,0.494-7.669,1.379-11.428c1.122-6.294,3.959-11.938,7.013-17.45
				c3.611-6.528,9.898-11.023,16.046-14.867c3.254-1.802,6.657-3.26,10.208-4.372c9.147-3.389,20.721-3.819,29.917-3.955
				c8.483-0.129,16.998,1.044,25.38,2.198c10.155,1.396,20.163,3.869,30.062,6.475c1.086,0.284,0.301-1.461,0.198-1.641
				c-0.458-0.829-1.291-2.653-2.331-2.906c-12.12-2.933-24.228-5.137-36.627-6.478c-6.339-0.686-12.699-0.698-19.063-0.654
				c-3.636,0.029-8.689,0.396-12.299,0.996c-5.697,0.951-5.71,0.955-11.291,2.267c-5.563,1.309-10.607,3.841-15.607,6.5
				c-4.943,2.627-8.76,6.679-12.484,10.736c-4.121,4.479-6.341,10.4-8.513,15.945c-2.236,5.693-2.717,11.943-3.104,17.962
				c-0.403,6.272,0.906,12.626,2.025,18.746c1.235,6.737,3.736,13.218,6.113,19.603c4.18,11.229,10.167,21.686,16.448,31.843
				c7.719,12.484,17.373,23.833,28.463,33.418C1003.008,266.984,1004.319,266.915,1004.183,266.798z"/>
			<path opacity="0.1797" fill="#43362B" enable-background="new    " d="M1002.702,266.121
				c-18.446-15.885-31.733-36.073-42.207-57.829c-4.996-10.375-8.146-21.42-10.305-32.687c-0.646-4.116-0.949-8.254-0.911-12.417
				c-0.19-6.184,1.529-12.12,3.15-18.001c1.285-3.9,3.012-7.596,5.187-11.08c2.67-4.897,7.048-8.586,11.23-12.104
				c4.508-3.316,9.438-5.871,14.792-7.663c5.382-2.137,11.306-2.899,16.986-3.75c10.25-1.536,20.858-0.737,31.12,0.161
				c12.396,1.088,24.619,3.881,36.654,6.946c1.364,0.344,0.553-2.472-0.353-2.69c-7.942-1.913-15.927-3.756-24.024-4.9
				c-6.292-0.888-12.535-1.565-18.87-2.049c-6.364-0.48-12.722-0.225-19.085,0.101c-6.111,0.31-12.056,1.619-17.981,3.026
				c-2.946,0.698-8.19,2.576-10.896,4.011c-1.592,0.844-3.187,1.691-4.783,2.536c-3.263,1.928-6.262,4.204-8.996,6.828
				c-4.578,3.907-7.443,9.297-10.223,14.491c-3.024,5.659-4.086,12.306-5.128,18.534c-1.027,6.155-0.093,12.62,0.632,18.73
				c0.807,6.787,3.098,13.42,5.181,19.884c2.205,6.854,5.432,13.366,8.562,19.828c6.147,12.677,14.388,24.316,23.184,35.264
				c5.007,6.234,10.828,11.813,16.862,17.03c0.318,0.275,1.024-0.181,1.062-0.535
				C1003.598,267.224,1003.103,266.469,1002.702,266.121z"/>
			<path opacity="0.1797" fill="#43362B" enable-background="new    " d="M1002.008,261.838
				c-14.74-12.639-25.773-28.091-35.417-44.814c-4.733-8.207-8.313-16.976-11.596-25.836c-1.472-4.268-2.691-8.605-3.664-13.012
				c1.147-13.486,2.297-26.972,3.446-40.458c1.689-3.616,3.811-6.961,6.358-10.03c5.696-7.812,14.647-12.003,23.305-15.367
				c3.739-1.214,7.547-2.146,11.423-2.794c6.021-1.243,12.319-1.25,18.433-1.354c8.354-0.139,16.731,0.949,24.995,2.036
				c10.026,1.318,19.917,3.689,29.704,6.193c0.281,0.073,0.818-1.286,0.747-1.305c-12.114-3.151-24.238-5.596-36.653-7.211
				c-12.546-1.635-25.104-1.404-37.62,0.231c-5.886,0.768-11.449,2.753-16.956,4.853c-5.237,1.997-9.634,5.342-13.956,8.8
				c-1.563,1.252-3.017,2.716-4.217,4.309c-3.812,5.061-7.443,10.283-9.182,16.495c-1.505,5.381-1.882,6.873-2.861,12.323
				c-0.773,4.293-0.419,8.782-0.283,13.097c0.077,2.365,0.37,4.764,0.825,7.088c0.731,4.457,1.743,8.851,3.029,13.182
				c1.327,4.518,2.885,8.956,4.664,13.315c5.101,13.457,12.885,25.783,20.873,37.666c6.974,10.373,15.764,19.635,25.149,27.841
				c0.908,0.793,0.729-1.493,0.721-1.543C1003.088,264.449,1002.914,262.615,1002.008,261.838z"/>
			<path opacity="0.1797" fill="#43362B" enable-background="new    " d="M1003.774,265.843
				c-21.9-18.92-37.438-44.229-47.503-71.141c-1.492-4.315-2.753-8.696-3.779-13.148c-1.607-6.221-1.929-12.552-2.101-18.932
				c0.049-3.911,0.526-7.771,1.432-11.577c1.155-6.375,4.037-12.054,7.145-17.636c2.05-3.183,4.467-6.06,7.256-8.621
				c3.807-3.971,8.946-6.456,13.775-8.866c3.461-1.499,7.025-2.697,10.689-3.595c5.692-1.656,11.755-2.054,17.622-2.548
				c10.425-0.875,21.018,0.285,31.352,1.546c10.117,1.235,20.098,3.578,29.968,6.057c0.536,0.136,1.101-0.301,0.796-0.882
				c-0.363-0.699-1.58-1.95-2.37-2.14c-12.226-2.931-24.435-5.118-36.941-6.427c-12.668-1.328-25.308-0.62-37.813,1.603
				c-5.838,1.04-11.279,3.29-16.668,5.652c-5.275,2.308-9.589,6.034-13.822,9.822c-4.487,4.015-7.248,9.446-9.912,14.709
				c-1.732,4.139-3.069,8.403-4.011,12.791c-0.813,3.919-1.206,7.883-1.182,11.886c-0.412,8.794,2.004,17.579,4.31,25.96
				c2.536,9.206,6.486,18.383,11.036,26.788c4.517,8.346,9.445,16.246,14.742,24.126c6.927,10.306,15.762,19.543,25.089,27.68
				C1003.992,269.918,1004.491,266.463,1003.774,265.843z"/>
			<path opacity="0.1797" fill="#43362B" enable-background="new    " d="M1004.08,261.67c-6.022-5.188-11.312-10.757-16.462-16.808
				c-5.956-6.993-10.908-14.795-15.732-22.581c-5.047-8.147-9.002-16.881-12.699-25.694c-1.707-4.318-3.19-8.713-4.443-13.183
				c-2.441-8.125-3.593-16.375-3.457-24.755c0.078-3.841,0.575-7.628,1.496-11.362c5.642-19.897,18.104-32.011,37.388-36.341
				c7.779-2.33,16.141-2.637,24.186-2.912c10.729-0.363,21.519,1.163,32.08,2.823c8.028,1.265,15.942,3.244,23.802,5.261
				c0.532,0.139,0.852-1.33,0.311-1.47c-12.083-3.098-24.177-5.492-36.553-7.065c-12.561-1.597-25.135-1.332-37.655,0.367
				c-3.301,0.449-8.221,1.586-11.379,2.766c-3.379,1.264-7.211,2.503-10.291,4.429c-4.426,2.769-4.716,2.975-8.935,6.341
				c-3.17,2.526-5.614,6.209-7.977,9.415c-4.244,5.759-6.158,13.005-7.985,19.777c-1.585,5.873-1.298,12.044-1.074,18.041
				c0.249,6.806,2.215,13.586,3.974,20.096c4.363,16.134,12.776,31.087,21.731,45.054c7.923,12.354,17.556,23.457,28.602,33.104
				C1004.165,267.986,1004.93,262.401,1004.08,261.67z"/>
			<path opacity="0.1797" fill="#43362B" enable-background="new    " d="M1001.58,264.989
				c-16.53-14.235-28.842-32.171-38.973-51.376c-4.429-8.394-7.614-17.317-10.443-26.35c-6.385-21.158-2.131-42.297,12.766-63.414
				c2.738-2.365,5.71-4.388,8.913-6.07c6.265-3.762,13.863-5.269,20.917-6.667c7.854-1.558,15.979-1.552,23.947-1.444
				c16.465,0.214,32.895,3.71,48.787,7.742c0.273,0.07,1.769-0.259,1.159-0.417c-11.977-3.095-23.93-5.517-36.189-7.179
				c-12.513-1.701-25.043-1.688-37.557-0.2c-5.925,0.705-11.489,2.621-17.048,4.664c-3.489,1.47-6.79,3.285-9.896,5.446
				c-3.082,2.156-5.857,4.65-8.323,7.489c-1.384,1.406-2.616,3-3.601,4.713c-2.074,3.609-4.443,7.273-5.599,11.333
				c-2.246,7.881-1.54,4.827-2.937,12.269c-0.731,3.892-0.432,8.342-0.343,12.259c0.263,11.428,4.216,22.716,8.14,33.288
				c2.522,6.791,5.969,13.224,9.339,19.613c3.374,6.401,7.383,12.746,11.672,18.572c3.104,4.22,4.968,6.651,8.254,10.776
				c4.926,6.181,10.633,11.652,16.6,16.799c0.41,0.354,0.914,0.461,1.238-0.104C1002.704,266.207,1001.935,265.293,1001.58,264.989z
				"/>
			<path opacity="0.1797" fill="#43362B" enable-background="new    " d="M1005.378,264.752
				c-14.86-12.816-26.013-28.514-35.697-45.478c-4.739-8.304-8.304-17.171-11.559-26.134c-1.459-4.334-2.667-8.734-3.626-13.205
				c-1.527-6.255-1.742-12.619-1.8-19.011c0.119-3.937,0.68-7.809,1.684-11.618c1.857-8.273,5.469-15.525,10.833-21.752
				c2.445-2.781,5.185-5.231,8.219-7.35c1.548-0.952,3.092-1.906,4.635-2.857c10.347-4.86,21.092-7.534,32.232-8.027
				c10.357-0.828,20.888,0.367,31.149,1.657c10.084,1.265,20.025,3.626,29.862,6.123c0.528,0.136,1.173,0.029,1.107-0.686
				c-0.059-0.68-1.398-1.066-1.91-1.192c-12.145-3.031-24.295-5.346-36.731-6.819c-10.556-1.249-21.807-1.552-32.335,0.07
				c-4.383,0.673-6.729,1.125-11.036,2.108c-4.104,0.935-7.79,2.535-11.657,4.132c-5.276,2.175-9.629,5.772-13.9,9.436
				c-2.498,2.137-5.936,6.5-7.437,9.367c-3.097,5.899-2.53,4.675-4.942,11.062c-1.618,4.286-2.138,8.232-2.854,12.683
				c-0.978,6.088-0.02,12.474,0.729,18.515c0.836,6.739,3.212,13.359,5.311,19.776c4.448,13.616,11.85,26.245,19.545,38.226
				c7.871,12.256,17.516,23.318,28.559,32.789C1004.83,267.487,1006.027,265.315,1005.378,264.752z"/>
		</g>
	</g>
</g>
<g opacity="0.5">
	<g>
		<g>
			<path opacity="0.1797" fill="#43362B" enable-background="new    " d="M1028.67,266.874c-1.893-1.88-3.787-3.762-5.681-5.643
				c-3.264-3.415-6.225-7.072-8.882-10.975c-4.569-6.181-7.01-13.423-8.688-20.808c-1.756-7.708,0.321-15.929,3.007-23.108
				c2.269-6.057,6.762-11.191,10.978-15.943c6.026-6.79,14.277-11.92,21.984-16.441c6.774-3.974,14.187-6.787,21.541-9.459
				c14.779-5.365,30.596-7.454,46.243-7.362c1.01,0.006,0.181-1.302-0.016-1.54c-0.524-0.632-1.582-2.095-2.531-2.073
				c-7.809,0.177-15.349,0.933-23.05,2.213c-7.903,1.312-15.561,3.818-23.099,6.449c-14.379,5.014-27.425,13.139-38.731,23.239
				c-5.046,4.507-8.903,10.031-12.356,15.787c-3.283,5.476-4.637,11.597-5.519,17.808c-0.968,6.822,1.035,13.694,3.154,20.067
				c1.525,3.803,3.424,7.406,5.696,10.818c3.763,6.347,9.37,11.595,14.532,16.755
				C1027.503,266.905,1028.791,266.994,1028.67,266.874z"/>
			<path opacity="0.1797" fill="#43362B" enable-background="new    " d="M1027.165,266.156
				c-5.404-4.909-10.166-10.356-14.292-16.337c-10.909-14.662-11.936-35.378-1.381-52.575c2.631-4.29,6.343-7.89,9.868-11.418
				c5.257-5.264,11.629-9.231,17.924-13.075c10.079-6.148,21.399-10.097,32.673-13.36c11.208-3.246,22.88-4.403,34.497-4.53
				c1.536-0.019,0.633-2.194-0.313-2.171c-3.827-0.016-7.648,0.158-11.463,0.521c-5.935,0.417-11.79,1.66-17.601,2.87
				c-9.882,2.055-19.339,5.757-28.531,9.834c-8.854,3.93-16.88,9.373-24.446,15.352c-6.889,5.446-12.229,12.301-16.693,19.779
				c-2.479,4.145-3.691,8.842-4.81,13.479c-0.667,2.763-0.918,7.48-0.585,10.293c0.105,1.72,0.315,3.427,0.637,5.115
				c1.334,5.504,1.171,4.925,3.216,10.514c2.211,6.031,6.401,11.307,10.196,16.375c2.698,3.604,7.573,8.295,10.691,11.444
				c0.291,0.292,1.033-0.12,1.101-0.455C1027.957,267.275,1027.526,266.516,1027.165,266.156z"/>
			<path opacity="0.1797" fill="#43362B" enable-background="new    " d="M1026.546,261.892c-3.399-3.604-6.799-7.205-10.198-10.806
				c-2.746-3.375-5.161-6.973-7.249-10.792c-0.828-1.745-1.655-3.493-2.482-5.238c-4.093-10.966-4.008-21.301,0.252-31.003
				c1.721-4.65,4.836-8.7,7.754-12.632c4.264-5.741,10.124-10.249,15.753-14.536c10.979-8.364,24.164-13.561,37.188-17.756
				c12.98-4.186,26.652-5.731,40.229-5.731c0.279,0,0.273-1.504-0.009-1.504c-3.814-0.092-7.627,0.006-11.436,0.296
				c-5.932,0.301-11.8,1.443-17.621,2.545c-9.962,1.888-19.521,5.437-28.826,9.364c-7.113,2.997-13.72,7.078-20.128,11.333
				c-7.439,4.941-13.623,11.374-19.03,18.415c-3.916,5.105-7.081,11.912-8.022,18.3c-0.513,3.487-1.1,7.139-0.689,10.682
				c0.069,1.97,0.315,3.91,0.741,5.823c1.117,4.615,1.491,5.829,3.195,10.505c2.191,6.013,6.424,11.294,10.199,16.343
				c2.532,3.392,7.803,8.574,10.696,11.548c0.841,0.863,0.79-1.467,0.788-1.486C1027.507,264.446,1027.395,262.729,1026.546,261.892
				z"/>
			<path opacity="0.1797" fill="#43362B" enable-background="new    " d="M1028.221,265.837
				c-5.332-4.947-10.09-10.404-14.282-16.375c-2.321-3.37-4.289-6.939-5.899-10.704c-3.049-6.275-3.575-13.302-3.46-20.131
				c0.105-6.373,2.864-12.41,5.672-17.965c3.027-5.984,7.976-10.906,12.713-15.525c5.266-5.131,11.648-9.057,17.904-12.825
				c6.713-4.041,14.058-6.946,21.355-9.706c14.622-5.536,30.328-7.817,45.889-7.963c0.565-0.004,0.996-0.579,0.53-1.062
				c-0.571-0.597-2.126-1.508-2.975-1.485c-7.884,0.202-15.493,0.989-23.266,2.301c-7.989,1.347-15.724,3.901-23.342,6.579
				c-7.558,2.656-14.642,6.431-21.576,10.388c-8.156,4.653-15.217,10.846-21.639,17.627c-4.729,4.998-7.974,10.992-10.74,17.213
				c-2.723,6.114-3.032,12.812-2.89,19.369c0.165,7.482,3.491,14.525,6.813,21.022c2.26,3.86,4.807,7.521,7.637,10.985
				c2.965,3.933,7.024,7.828,10.443,11.343C1028.132,269.975,1028.896,266.514,1028.221,265.837z"/>
			<path opacity="0.1797" fill="#43362B" enable-background="new    " d="M1028.61,261.582c-1.899-1.884-3.804-3.769-5.703-5.649
				c-3.265-3.446-6.216-7.141-8.853-11.087c-4.423-6.072-6.825-13.268-8.384-20.529c-7.549-35.109,60.011-64.938,73.87-68.248
				c9.452-2.26,19.21-2.915,28.894-2.974c0.932-0.007,0.786-1.506-0.122-1.499c-17.794,0.125-35.851,3.132-52.312,10.134
				c-5.447,2.318-10.932,4.66-16.021,7.711c-6.213,3.724-11.951,7.742-17.475,12.429c-4.176,3.547-7.581,7.806-10.854,12.159
				c-3.187,4.236-5.179,9.167-6.961,14.105c-1.228,3.398-1.515,6.886-1.918,10.435c-0.587,5.144,0.713,10.296,1.916,15.231
				c0.981,4.024,2.967,7.492,4.817,11.144c2.233,3.847,4.754,7.492,7.562,10.938c3.229,3.869,6.646,7.567,10.247,11.092
				c0.792,0.816,1.148-0.922,1.211-1.277C1028.67,264.866,1029.346,262.309,1028.61,261.582z"/>
			<path opacity="0.1797" fill="#43362B" enable-background="new    " d="M1026.056,264.977c-1.884-1.871-3.769-3.743-5.651-5.614
				c-8.918-8.775-14.68-19.23-17.285-31.362c-1.511-6.522-0.196-13.239,1.455-19.546c1.236-4.732,4.117-8.997,6.781-13.001
				c4.758-7.161,11.908-12.626,18.757-17.615c10.771-7.853,23.436-12.951,35.986-17.13c12.856-4.28,26.436-5.934,39.925-6.072
				c0.337-0.004,1.244-0.858,1.142-0.858c-7.789-0.047-15.328,0.5-23.046,1.565c-9.947,1.37-19.589,4.41-29,7.79
				c-7.446,2.678-14.408,6.455-21.221,10.426c-7.908,4.615-14.702,10.761-20.829,17.491c-4.528,4.977-7.454,10.894-9.937,17.061
				c-1.022,3.117-1.685,6.31-1.992,9.579c-0.772,5.115,0.424,10.334,1.519,15.278c1.325,5.984,4.794,11.482,7.902,16.616
				c3.903,6.449,9.677,11.896,14.943,17.146c0.383,0.383,0.88,0.417,1.216-0.079
				C1027.051,266.159,1026.378,265.296,1026.056,264.977z"/>
			<path opacity="0.1797" fill="#43362B" enable-background="new    " d="M1029.879,264.759c-1.865-1.875-3.728-3.75-5.591-5.624
				c-3.262-3.44-6.212-7.125-8.853-11.062c-7.471-10.21-10.048-22.805-8.019-35.425c0.763-4.736,3.189-9.12,5.42-13.271
				c3.193-5.943,8.236-10.802,13.082-15.37c9.532-8.998,21.767-14.997,33.709-20.023c16.074-6.765,33.674-9.651,51.02-9.73
				c0.639-0.003,0.678-0.895,0.228-1.167c-0.864-0.525-2.192-0.636-3.177-0.62c-7.868,0.13-15.465,0.844-23.23,2.083
				c-9.963,1.59-19.575,4.888-28.935,8.538c-7.339,2.861-14.172,6.803-20.839,10.954c-7.744,4.825-14.292,11.127-20.164,18.041
				c-4.316,5.077-6.999,11.118-9.187,17.327c-0.908,2.569-1.692,7.135-1.667,9.856c-0.011,1.631,0.009,3.259,0.051,4.891
				c0.22,1.668,0.438,3.337,0.655,5.007c0.685,3.554,1.758,6.989,3.213,10.302c1.703,3.797,3.753,7.398,6.145,10.802
				c3.873,6.133,9.265,11.276,14.344,16.37C1029.119,267.677,1030.478,265.362,1029.879,264.759z"/>
		</g>
	</g>
</g>
<g opacity="0.5">
	<g>
		<g>
			<path opacity="0.1797" fill="#43362B" enable-background="new    " d="M1070.323,291.857c-0.986-2.959-1.968-5.918-2.957-8.876
				c-1.739-5.271-3.155-10.625-4.244-16.066c-1.945-8.434-2.041-17.004-1.186-25.556c0.642-6.382,3.538-11.991,7.085-17.168
				c3.196-4.666,8.555-7.299,13.54-9.48c5.63-2.462,12.23-2.526,18.239-2.605c3.481,0.117,6.937,0.456,10.373,1.014
				c11.99,2.265,23.382,6.08,34.172,11.454c11.942,5.589,23.01,13.593,33.122,21.888c7.216,5.925,13.48,12.854,19.52,19.939
				c0.431,0.502,1.14,0.559,1.149-0.307c0.01-1.079-0.38-3.329-1.104-4.16c-3.035-3.648-6.236-7.141-9.603-10.483
				c-4.846-5.042-10.382-9.414-15.787-13.821c-7.127-5.807-15.252-10.379-23.303-14.741c-13.903-7.53-29.29-11.966-44.988-13.315
				c-6.502-0.56-12.882,0.427-19.169,1.96c-2.792,0.812-5.455,1.935-7.981,3.374c-3.84,1.896-6.69,5.077-9.453,8.219
				c-1.79,2.4-3.248,4.985-4.371,7.757c-2.265,4.694-2.635,10.243-3.125,15.32c-0.647,6.724,0.629,13.577,1.693,20.171
				c1.369,8.488,4.467,16.698,7.322,24.759c0.119,0.332,0.362,0.781,0.661,0.986C1070.1,292.236,1070.4,292.078,1070.323,291.857z"
				/>
			<path opacity="0.1797" fill="#43362B" enable-background="new    " d="M1068.809,290.975c-3.025-8.036-5.438-16.255-7.231-24.667
				c-0.921-4.59-1.505-9.225-1.743-13.903c-0.638-7.378,0.824-14.503,3.17-21.43c1.872-5.532,5.998-9.74,10.326-13.397
				c5.61-4.742,13.551-6.146,20.565-6.999c6.807-0.828,13.799,0.325,20.485,1.464c7.783,1.328,15.254,4.201,22.558,7.097
				c12.444,4.938,23.681,12.396,34.347,20.362c9.354,6.989,17.41,15.579,24.947,24.436c0.554,0.652,1.067-0.458,1.132-0.799
				c0.138-0.74,0.407-1.992-0.147-2.621c-13.696-15.509-29.721-29.466-48.482-38.552c-7.562-3.661-15.154-6.762-23.159-9.354
				c-8.903-2.88-18.189-3.936-27.496-4.05c-6.353-0.079-12.399,1.502-18.308,3.611c-2.724,1.135-5.267,2.582-7.63,4.347
				c-3.762,2.462-6.282,6.306-8.684,9.971c-1.587,2.857-2.792,5.866-3.615,9.031c-1.818,5.51-1.617,11.604-1.593,17.301
				c0.034,7.391,1.952,14.783,3.606,21.917c1.313,5.649,3.681,11.968,5.555,17.428c0.114,0.335,0.942,0.389,1.171,0.193
				C1068.919,292.075,1068.94,291.351,1068.809,290.975z"/>
			<path opacity="0.1797" fill="#43362B" enable-background="new    " d="M1068.931,287.488c-1.041-2.972-2.079-5.94-3.119-8.909
				c-1.727-5.267-3.129-10.618-4.206-16.055c-0.52-6.43-1.04-12.86-1.559-19.29c0.468-14.864,7.585-25.455,21.355-31.777
				c4.277-1.944,9.13-2.336,13.721-2.829c8.713-0.929,17.645,1.261,26.025,3.379c11.896,3.003,23.031,8.684,33.648,14.667
				c15.918,8.969,29.606,21.519,41.453,35.29c0.205,0.24,1.488,0.237,1.421,0.154c-2.948-3.688-6.06-7.229-9.344-10.625
				c-3.097-3.357-6.785-6.566-10.162-9.626c-10.079-9.133-21.8-16.268-33.811-22.511c-10.727-5.573-22.359-9.022-34.187-11.238
				c-8.301-1.556-16.744-1.072-24.975,0.521c-10.103,1.951-19.93,9.926-23.388,19.66c-1.517,4.268-1.735,5.178-2.748,9.86
				c-0.903,4.188-0.694,8.554-0.69,12.793c0.002,4.887,1.045,9.942,1.826,14.731c1.393,8.552,4.515,16.869,7.299,25.028
				c0.188,0.556,0.924,0.673,1.184,0.088C1069.037,289.995,1069.226,288.332,1068.931,287.488z"/>
			<path opacity="0.1797" fill="#43362B" enable-background="new    " d="M1069.911,290.371c-1.024-2.959-2.05-5.915-3.075-8.874
				c-1.725-5.288-3.13-10.662-4.213-16.119c-1.938-8.472-2.289-16.929-1.06-25.366c0.515-3.351,1.422-6.588,2.712-9.717
				c1.939-5.593,6.202-9.791,10.652-13.413c11.376-9.259,27.921-7.338,41.061-5.046c14.069,2.45,27.329,8.877,39.681,15.765
				c16.081,8.972,29.819,21.636,41.763,35.504c0.361,0.417,1.095,0.142,1.121-0.396c0.042-0.8-0.434-2.13-0.96-2.731
				c-3.072-3.642-6.306-7.129-9.707-10.46c-4.901-5.039-10.486-9.402-15.957-13.787c-8.793-7.052-18.942-12.414-29.06-17.26
				c-9.249-4.432-19.143-7.166-29.158-9.164c-8.623-1.72-17.383-1.372-25.981,0.107c-3.021,0.645-5.935,1.609-8.746,2.886
				c-4.16,1.634-7.473,4.594-10.691,7.567c-5.999,5.552-8.194,13.973-9.663,21.646c-1.189,6.199-0.333,12.752,0.298,18.945
				c1.132,11.146,4.925,21.949,8.458,32.497C1067.861,294.376,1070.229,291.294,1069.911,290.371z"/>
			<path opacity="0.1797" fill="#43362B" enable-background="new    " d="M1070.804,286.106c-1.048-2.971-2.098-5.946-3.145-8.918
				c-1.728-5.272-3.129-10.634-4.201-16.077c-1.938-8.523-1.846-16.449-0.914-24.924c0.376-1.665,0.749-3.332,1.124-4.997
				c11.477-16.521,25.351-23.998,41.623-22.426c5.555,0.206,11.062,1.59,16.437,2.857c14.469,3.414,27.812,10.686,40.287,18.535
				c13.648,8.589,25.295,19.922,35.664,32.156c0.161,0.19,1.346-0.729,1.235-0.86c-4.615-5.456-9.362-10.555-14.467-15.556
				c-4.985-4.878-10.604-9.067-16.168-13.243c-5.4-4.049-11.284-7.403-17.138-10.729c-2.926-1.663-8.61-4.435-11.754-5.705
				c-5.681-2.295-11.309-4.29-17.184-6.029c-5.389-1.593-10.943-2.324-16.501-2.987c-6.413-0.765-12.729-0.048-19.017,1.113
				c-5.655,1.046-10.509,3.948-14.947,7.413c-2.634,2.051-5.756,5.902-7.235,8.956c-2.041,4.21-2.457,5.25-3.938,9.765
				c-1.802,5.504-1.598,11.57-1.55,17.257c0.035,4.372,1.197,10.36,1.89,14.602c1.397,8.51,4.493,16.809,7.209,24.952
				c0.397,1.192,1.478-0.923,1.514-1.001C1070.076,289.262,1071.21,287.258,1070.804,286.106z"/>
			<path opacity="0.1797" fill="#43362B" enable-background="new    " d="M1067.971,289.479c-0.999-2.852-1.997-5.703-2.999-8.554
				c-1.738-5.29-3.148-10.664-4.229-16.123c-0.925-4.625-1.474-9.291-1.652-14.004c-0.733-18.329,5.325-30.572,18.172-36.737
				c3.671-2.036,8.089-2.684,12.145-3.408c6.307-1.125,12.896-0.423,19.195,0.249c5.527,0.589,10.959,2.254,16.269,3.804
				c10.074,2.943,19.391,7.884,28.514,12.961c16.007,8.915,29.695,21.531,41.587,35.314c0.584,0.677,2.095,0.165,1.478-0.543
				c-3.002-3.601-6.166-7.05-9.49-10.353c-4.779-4.976-10.198-9.288-15.589-13.562c-10.279-8.146-21.882-14.457-33.77-19.884
				c-7.246-3.304-14.821-5.615-22.514-7.587c-5.221-1.34-10.55-1.855-15.898-2.289c-4.952-0.397-9.798,0.367-14.633,1.274
				c-9.812,1.839-19.865,9.325-23.384,18.929c-1.856,5.062-3.471,10.243-3.52,15.715c-0.018,2.095-0.039,4.195-0.055,6.29
				c0.179,4.745,0.734,9.443,1.666,14.1c1.366,8.671,4.554,17.071,7.443,25.306c0.146,0.414,0.838,0.211,1.104,0.092
				C1068.24,290.273,1068.094,289.831,1067.971,289.479z"/>
			<path opacity="0.1797" fill="#43362B" enable-background="new    " d="M1072.153,289.101c-1.029-2.969-2.062-5.937-3.091-8.906
				c-1.726-5.295-3.113-10.675-4.166-16.141c-1.911-8.545-1.812-17.184-0.761-25.805c1.069-8.744,4.925-14.261,10.476-19.97
				c9.8-8.459,22.126-11.087,36.978-7.875c3.662,0.522,7.282,1.255,10.86,2.197c14.309,3.319,27.602,10.432,39.994,18.079
				c13.858,8.548,25.684,19.958,36.21,32.258c0.711,0.834,1.812-0.193,1.11-1.015c-3.004-3.683-6.179-7.214-9.519-10.593
				c-4.822-5.118-10.317-9.554-15.771-13.963c-10.41-8.415-22.27-14.836-34.423-20.314c-8.984-4.053-18.562-6.474-28.237-8.137
				c-5.172-0.889-11.19-1.249-16.419-0.553c-4.752,0.632-9.906,1.268-14.292,3.433c-1.318,0.648-2.631,1.3-3.947,1.948
				c-2.516,1.435-4.799,3.177-6.851,5.219c-1.994,1.742-4.409,5.103-5.519,7.46c-0.71,1.385-1.368,2.792-1.981,4.22
				c-0.505,1.571-1.011,3.143-1.518,4.71c-0.899,3.576-1.412,7.205-1.54,10.888c-0.607,6.724,0.853,13.741,1.939,20.323
				c1.396,8.45,4.462,16.672,7.21,24.74C1069.436,292.884,1072.44,289.929,1072.153,289.101z"/>
		</g>
	</g>
</g>
<g opacity="0.5">
	<g>
		<g>
			<path opacity="0.1797" fill="#43362B" enable-background="new    " d="M955.884,258.784c-7.544-6.974-15.026-13.995-22.297-21.26
				c-9.585-9.581-18.475-19.782-26.771-30.493c-8.836-11.406-16.146-24.032-19.961-38.004c-0.284-1.492-0.57-2.987-0.854-4.482
				c-1.266-7.508-0.058-14.276,3.626-20.306c2.971-5.74,8.979-9.354,14.312-12.496c1.199-0.706-0.532-2.048-1.372-1.511
				c-3.083,1.704-5.91,3.752-8.487,6.148c-2.227,2.042-4.102,4.363-5.63,6.968c-2.118,3.078-3.685,8.036-3.836,11.852
				c-0.18,4.574,0.157,8.573,0.976,13.128c1.183,6.575,4.491,13.008,7.429,18.914c3.412,6.86,7.971,13.154,12.435,19.344
				c5.756,7.981,12.372,15.345,18.998,22.603c9.447,10.343,19.749,19.871,30.014,29.387
				C954.725,258.819,956.001,258.892,955.884,258.784z"/>
			<path opacity="0.1797" fill="#43362B" enable-background="new    " d="M954.38,258.066c-13.116-12.193-25.938-24.56-37.833-37.97
				c-10.199-11.498-19.069-23.898-26.047-37.543c-2.309-4.511-3.797-9.294-5.173-14.143c-0.286-1.515-0.574-3.029-0.862-4.542
				c0.08-16.031,5.957-27.079,17.629-33.146c0.823-0.511-0.08-1.826-1.006-1.236c-4.237,2.713-9.107,5.659-12.055,9.939
				c-0.982,1.186-1.838,2.447-2.568,3.788c-2.048,4.214-1.685,3.307-3.058,7.751c-1.35,4.373-0.821,9.288-0.4,13.717
				c0.804,8.431,4.965,16.546,8.769,23.934c3.538,6.87,8.167,13.158,12.726,19.37c4.776,6.511,10.149,12.582,15.52,18.607
				c10.604,11.902,22.382,22.669,33.96,33.594c0.298,0.281,1.03-0.114,1.096-0.462C955.176,259.195,954.75,258.411,954.38,258.066z"
				/>
			<path opacity="0.1797" fill="#43362B" enable-background="new    " d="M953.755,253.799
				c-13.083-11.975-25.725-24.297-37.495-37.584c-6.516-7.353-12.386-15.202-17.905-23.321c-3.109-4.58-5.672-9.461-8.165-14.393
				c-8.07-15.949-9.356-36.275,12.529-49.866c0.935-0.578,0.216-1.976-0.656-1.459c-1.711,0.815-3.324,1.783-4.846,2.895
				c-4.337,3.224-3.452,2.478-7.171,6.127c-1.782,1.748-4.107,5.288-4.938,7.675c-1.128,3.23-2.229,6.421-2.343,9.883
				c-0.116,3.518-0.051,5.317,0.274,8.958c0.308,3.446,1.443,6.819,2.397,10.113c2.514,8.689,7.553,16.679,12.343,24.246
				c6.344,10.015,14.219,19.082,22.079,27.914c10.709,12.035,22.663,22.802,34.229,33.977c0.86,0.833,0.79-1.441,0.782-1.488
				C954.728,256.391,954.623,254.592,953.755,253.799z"/>
			<path opacity="0.1797" fill="#43362B" enable-background="new    " d="M955.438,257.75c-6.208-5.792-12.404-11.583-18.482-17.51
				c-9.572-9.338-18.515-19.265-26.947-29.633c-3.721-4.574-7.066-9.414-10.378-14.285c-4.909-7.397-8.887-15.301-11.935-23.716
				c-0.992-3.013-1.714-6.092-2.163-9.234c-0.812-4.347-0.214-8.629,0.543-12.91c1.646-9.312,10.269-15.914,17.688-20.387
				c0.524-0.316,0.241-1.097-0.308-1.151c-0.904-0.085-2.329,0.319-3.074,0.829c-3.127,1.862-5.985,4.068-8.573,6.622
				c-2.23,2.232-4.097,4.733-5.597,7.508c-3.185,5.014-3.499,11.298-3.518,17.014c-0.013,4.669,1.374,9.999,3.021,14.323
				c1.92,5.023,4.107,9.724,6.604,14.488c3.59,6.844,8.254,13.128,12.833,19.324c5.884,7.957,12.589,15.313,19.309,22.562
				c9.481,10.229,19.853,19.562,29.879,29.241C955.406,261.869,956.131,258.401,955.438,257.75z"/>
			<path opacity="0.1797" fill="#43362B" enable-background="new    " d="M955.822,253.498c-14.682-13.463-28.79-27.376-41.662-42.6
				c-7.527-8.902-14.078-18.5-19.787-28.647c-2.571-4.571-4.408-9.437-6.15-14.362c-1.4-4.251-2.145-8.598-2.231-13.04
				c-0.081-4.139,0.699-8.137,2.344-12c-0.279,0.647-0.557,1.296-0.834,1.947c5.196-5.276,10.394-10.552,15.588-15.825
				c0.471-0.3,1.729-1.188,1.588-1.888c-0.16-0.784-0.878-0.502-1.329-0.244c-6.191,3.55-12.564,7.837-15.82,14.485
				c-1.368,2.792-2.969,5.744-3.438,8.868c-0.925,6.152-1.028,12.388,0.745,18.427c0.826,3.243,1.887,6.411,3.183,9.5
				c1.919,5.096,4.786,9.844,7.505,14.532c5.916,10.195,13.612,19.385,21.259,28.299c11.647,13.581,24.937,25.521,37.761,37.938
				c0.806,0.781,1.138-0.885,1.205-1.277C955.886,256.818,956.564,254.182,955.822,253.498z"/>
			<path opacity="0.1797" fill="#43362B" enable-background="new    " d="M953.271,256.891
				c-16.087-14.855-31.6-30.098-45.419-47.125c-9.316-11.475-17.155-24.076-22.163-37.991c-0.747-5.973-1.494-11.94-2.241-17.912
				c0.282-2.902,1.014-5.69,2.192-8.358c2.669-7.625,10.346-12.468,16.928-16.12c0.009-0.003-0.908-1.068-1.21-0.894
				c-1.654,0.884-3.278,1.824-4.866,2.822c-2.759,1.806-5.249,3.93-7.463,6.37c-2.021,2.229-3.627,4.727-4.816,7.49
				c-2.084,3.926-2.256,8.497-2.479,12.806c-0.124,2.403,0.594,7.277,1.226,9.565c0.782,3.269,1.799,6.458,3.058,9.575
				c1.846,5.125,4.694,9.911,7.376,14.622c6.896,12.107,16.147,22.897,25.349,33.278c10.578,11.934,22.315,22.786,33.984,33.629
				c0.395,0.367,0.875,0.433,1.221-0.083C954.269,258.083,953.604,257.197,953.271,256.891z"/>
			<path opacity="0.1797" fill="#43362B" enable-background="new    " d="M957.088,256.672
				c-7.491-7.005-14.965-14.014-22.213-21.271c-10.99-10.999-21.092-22.797-30.198-35.394c-7.397-10.233-13.159-21.44-16.357-33.661
				c-0.669-2.994-1.007-6.022-1.01-9.092c-0.019-5.838,1.509-11.106,4.587-15.796c3.164-5.716,9.344-9.298,14.774-12.424
				c0.638-0.367,0.312-1.145-0.354-1.138c-1.183,0.019-2.829,0.556-3.819,1.195c-3.143,1.755-6.033,3.86-8.667,6.313
				c-2.267,2.127-4.18,4.54-5.737,7.23c-1.265,1.865-2.855,6.148-3.181,8.406c-0.206,1.407-0.407,2.816-0.608,4.224
				c-0.202,2.968-0.069,5.918,0.402,8.854c0.852,8.323,5.007,16.321,8.801,23.608c3.544,6.806,8.172,13.054,12.711,19.208
				c5.851,7.935,12.526,15.263,19.208,22.489c9.451,10.217,19.722,19.635,29.882,29.128
				C956.374,259.546,957.703,257.248,957.088,256.672z"/>
		</g>
	</g>
</g>
<g opacity="0.5">
	<g>
		<g>
			<path opacity="0.1797" fill="#43362B" enable-background="new    " d="M867.234,248.055c-1.885-1.954-3.77-3.911-5.653-5.864
				c-4.122-3.759-8.575-7.078-13.358-9.952c-5.008-3.005-10.225-5.585-15.654-7.738c-5.681-2.251-11.483-4.125-17.409-5.621
				c-9.413-2.706-19.27-3.765-28.954-4.916c-13.775-1.638-27.773-1.172-41.593-0.629c-24.606,0.964-49.035,5.662-72.923,11.342
				c-23.204,5.52-45.834,13.711-67.107,24.475c-0.325,0.165-0.073,1.672,0.582,1.341c39.854-20.242,83.967-30.373,128.201-35.108
				c10.416-1.117,20.89-1.306,31.353-1.452c13.348-0.183,26.583,1.315,39.749,3.319c6.119,1.458,12.237,2.915,18.355,4.372
				c5.701,1.723,11.244,3.863,16.623,6.417c5.129,2.431,9.988,5.317,14.579,8.656c4.446,3.215,8.454,6.907,12.021,11.077
				C866.228,247.963,867.649,248.487,867.234,248.055z"/>
			<path opacity="0.1797" fill="#43362B" enable-background="new    " d="M865.776,247.372c-1.86-1.953-3.726-3.907-5.588-5.861
				c-4.096-3.768-8.527-7.09-13.296-9.961c-4.987-3.003-10.187-5.573-15.6-7.716c-5.697-2.257-11.519-4.129-17.464-5.612
				c-9.37-2.677-19.192-3.699-28.831-4.824c-13.716-1.603-27.65-1.145-41.41-0.61c-24.548,0.948-48.918,5.583-72.763,11.203
				c-23.244,5.475-45.919,13.628-67.257,24.32c-0.461,0.23-0.744,0.865-0.136,1.179c0.64,0.334,2.436,0.705,3.114,0.366
				c39.947-19.792,83.94-29.722,128.111-34.075c10.354-1.021,20.755-1.1,31.146-1.128c13.208-0.035,26.279,1.647,39.269,3.835
				c6.051,1.163,12.012,2.684,17.881,4.562c5.574,1.779,10.986,3.964,16.236,6.55c5.007,2.469,9.75,5.371,14.224,8.712
				c4.318,3.208,8.202,6.872,11.658,10.995c0.268,0.285,1.026,0.019,1.146-0.312C866.385,248.536,866.098,247.71,865.776,247.372z"
				/>
			<path opacity="0.1797" fill="#43362B" enable-background="new    " d="M865.288,243.177c-1.893-1.957-3.788-3.913-5.68-5.87
				c-4.128-3.775-8.594-7.098-13.396-9.965c-5.021-3-10.255-5.566-15.704-7.697c-5.728-2.241-11.58-4.09-17.558-5.551
				c-9.396-2.633-19.249-3.604-28.908-4.678c-13.728-1.527-27.662-0.986-41.417-0.376c-24.513,1.084-48.828,5.836-72.617,11.574
				c-23.168,5.589-45.758,13.846-66.961,24.699c-1.509,0.771,2.116,3.515,2.91,3.123c40.068-19.795,84.167-29.722,128.45-34.056
				c10.388-1.015,20.824-1.087,31.25-1.106c13.261-0.025,26.385,1.672,39.425,3.876c6.077,1.176,12.063,2.706,17.957,4.596
				c5.597,1.793,11.032,3.986,16.302,6.585c5.022,2.475,9.779,5.387,14.268,8.738c4.342,3.196,8.219,6.879,11.631,11.052
				c0.783,0.847,0.893-1.29,0.888-1.372C866.064,245.694,866.074,243.99,865.288,243.177z"/>
			<path opacity="0.1797" fill="#43362B" enable-background="new    " d="M866.818,246.987c-1.854-1.948-3.71-3.892-5.565-5.836
				c-4.089-3.755-8.516-7.056-13.282-9.901c-4.976-2.978-10.167-5.525-15.565-7.646c-5.681-2.235-11.485-4.085-17.412-5.548
				c-9.336-2.646-19.124-3.651-28.723-4.761c-13.67-1.581-27.555-1.116-41.266-0.578c-24.474,0.958-48.771,5.576-72.547,11.181
				c-23.167,5.46-45.771,13.584-67.045,24.228c-1.235,0.621,1.379,2.068,2.208,1.66c39.937-19.616,83.842-29.447,127.943-33.664
				c10.334-0.986,20.71-1.027,31.08-1.018c13.173,0.013,26.2,1.745,39.144,3.986c6.029,1.189,11.964,2.734,17.806,4.638
				c5.551,1.805,10.939,4.009,16.16,6.613c4.987,2.491,9.709,5.409,14.164,8.756c4.252,3.174,8.06,6.81,11.425,10.906
				C866.385,251.131,867.462,247.66,866.818,246.987z"/>
			<path opacity="0.1797" fill="#43362B" enable-background="new    " d="M867.351,242.636c-3.597-4.153-7.619-7.843-12.067-11.067
				c-4.6-3.329-9.472-6.203-14.61-8.617c-5.131-2.712-11.578-4.647-17.032-6.49c-12.141-4.107-25.188-5.46-37.853-6.753
				c-17.23-1.758-34.724-0.664-51.93,0.702c-20.831,1.653-41.396,5.877-61.675,10.757c-23.184,5.576-45.79,13.78-67.053,24.544
				c-1.269,0.642,0.254,2.652,1.015,2.279c43.224-21.307,91.639-31.549,139.522-34.641c16.98-1.097,33.937-0.003,50.783,2.093
				c3.164,0.553,6.332,1.104,9.496,1.657c14.889,2.598,28.672,7.716,41.348,15.36c2.286,1.555,4.572,3.114,6.861,4.669
				c4.309,3.176,8.155,6.837,11.536,10.988c0.771,0.834,1.199-0.854,1.294-1.246C867.174,246.082,868.062,243.37,867.351,242.636z"
				/>
			<path opacity="0.1797" fill="#43362B" enable-background="new    " d="M864.723,246.143c-7.029-7.31-4.387-4.837-12.27-11.349
				c-4.592-3.379-9.456-6.31-14.589-8.795c-5.398-2.618-10.96-4.821-16.684-6.617c-12.153-4.314-25.256-5.867-37.984-7.337
				c-13.785-1.593-27.783-1.132-41.611-0.594c-24.776,0.964-49.409,5.63-73.471,11.308c-23.311,5.501-46.051,13.691-67.43,24.458
				c-1.044,0.525,0.876,1.303,1.033,1.353c0.972,0.313,2.846,1.097,3.865,0.591c39.827-19.78,83.711-29.781,127.765-34.229
				c10.368-1.046,20.786-1.157,31.194-1.221c13.235-0.076,26.338,1.549,39.365,3.681c9.058,1.479,17.708,4.391,26.318,7.444
				c5.324,2.083,10.438,4.593,15.344,7.527c6.921,4.116,13.047,9.231,18.38,15.345c0.365,0.379,0.813,0.37,1.183-0.044
				C865.49,247.261,865.016,246.446,864.723,246.143z"/>
			<path opacity="0.1797" fill="#43362B" enable-background="new    " d="M868.603,245.855c-3.547-4.155-7.529-7.837-11.949-11.046
				c-2.352-1.729-4.787-3.345-7.3-4.84c-5.023-2.956-10.253-5.482-15.689-7.581c-5.718-2.216-11.562-4.046-17.524-5.494
				c-12.652-3.519-25.976-4.505-39.005-5.419c-6.917-0.338-13.837-0.423-20.76-0.256c-6.235,0.035-14.931,0.551-21.132,1.17
				c-44.552,4.451-89.033,14.532-129.167,34.846c-0.349,0.174-1.316,1.128-0.422,0.677c12.573-6.452,25.552-11.855,38.941-16.205
				c9.308-3.202,18.865-5.644,28.382-8.118c27.22-7.082,55.419-10.369,83.481-11.223c16.829-0.509,33.531,1.347,50.058,4.312
				c9.12,1.637,17.801,4.738,26.438,7.976c2.648,1.216,5.296,2.437,7.942,3.654c9.984,4.821,18.513,11.34,25.591,19.559
				C867.551,248.987,869.152,246.43,868.603,245.855z"/>
		</g>
	</g>
</g>
<g opacity="0.5">
	<g>
		<g>
			<path opacity="0.1797" fill="#43362B" enable-background="new    " d="M917.498,247.824c-9.899-6.221-19.58-12.702-29.091-19.502
				c-12.888-9.215-24.899-19.514-36.352-30.439c-11.034-10.526-20.348-22.496-28.145-35.564c-3.511-5.879-5.678-12.256-7.66-18.758
				c-1.877-6.165-1.927-12.594-1.837-18.952c0.005-0.376-1.091-1.473-1.116-0.638c-0.363,4.229-0.225,8.44,0.411,12.638
				c0.598,6.563,3.327,12.87,5.736,18.904c2.676,6.703,6.909,12.778,10.892,18.738c4.292,6.42,9.598,12.164,14.748,17.886
				c10.659,11.842,23.195,22.005,35.721,31.78c11.246,8.778,23.227,16.628,35.294,24.218
				C916.371,248.308,917.661,247.928,917.498,247.824z"/>
			<path opacity="0.1797" fill="#43362B" enable-background="new    " d="M916.085,247.243c-7.76-4.881-15.372-9.946-22.924-15.143
				c-17.181-11.827-33.188-25.378-47.812-40.252c-7.161-7.283-13.271-15.405-19.02-23.814c-2.578-3.983-4.878-8.124-6.894-12.42
				c-4.968-9.724-6.688-20.756-6.549-31.615c0.008-0.503-0.572-0.645-0.979-0.598c-0.517,0.064-0.56,0.765-0.563,1.167
				c-0.054,7.15-0.147,5.456,0.638,12.572c0.764,6.914,3.642,13.461,6.321,19.783c2.841,6.705,7.179,12.771,11.281,18.731
				c5.913,8.585,13.338,16.128,20.63,23.522c7.613,7.72,16.089,14.624,24.515,21.42c13.113,10.585,27.26,19.967,41.493,28.961
				c0.366,0.233,1.002-0.282,0.982-0.667C917.173,248.312,916.558,247.54,916.085,247.243z"/>
			<path opacity="0.1797" fill="#43362B" enable-background="new    " d="M915.262,242.946
				c-18.858-11.801-36.784-24.671-53.703-39.129c-11.824-10.104-22.235-21.5-31.611-33.854c-2.837-3.922-5.43-8-7.773-12.234
				c-6.538-11.023-9.441-23.918-9.17-36.794c0.011-0.508-0.244-1.444-0.981-1.04c-0.717,0.392-0.581,2.111-0.592,2.759
				c-0.087,5.643-0.006,7.101,0.603,12.933c0.487,4.645,2.253,9.253,3.691,13.647c2.207,6.743,6.091,12.914,9.73,18.937
				c5.297,8.766,12.349,16.46,19.233,23.971c9.141,9.975,19.657,18.687,30.157,27.162c13.08,10.558,27.201,19.95,41.366,28.979
				c1.009,0.642,0.634-1.496,0.603-1.625C916.569,245.646,916.245,243.562,915.262,242.946z"/>
			<path opacity="0.1797" fill="#43362B" enable-background="new    " d="M917.192,247.018
				c-18.819-11.855-36.772-24.74-53.703-39.174c-11.771-10.22-22.409-21.572-31.925-34.052c-4.404-5.772-7.789-12.136-11.067-18.575
				c-1.905-4.091-3.456-8.308-4.651-12.658c-1.99-6.218-1.999-12.664-1.872-19.097c0.012-0.512-0.499-0.996-1.005-0.636
				c-0.56,0.405-1.57,1.764-1.566,2.482c0.016,2.171,0.028,4.343,0.044,6.512c0.295,4.432,1.08,8.772,2.36,13.024
				c1.619,6.755,5.088,13.078,8.279,19.17c5.886,11.238,14.621,20.934,23.17,30.192c9.16,9.92,19.663,18.599,30.162,27.038
				c13.065,10.505,27.145,19.887,41.276,28.881C917.943,250.918,917.986,247.517,917.192,247.018z"/>
			<path opacity="0.1797" fill="#43362B" enable-background="new    " d="M917.357,243.022
				c-9.919-6.221-19.591-12.743-29.096-19.581c-10.728-7.713-20.793-16.251-30.568-25.122c-9.687-8.792-18.189-18.671-26.024-29.112
				c-4.354-5.801-7.674-12.196-10.883-18.664c-1.868-6.158-3.731-12.317-5.597-18.475c-0.624-4.176-0.749-8.368-0.377-12.573
				c0.025-0.749-0.637-1.096-1.114-0.414c-0.72,1.031-1.573,3.003-1.579,4.274c-0.025,4.616-0.25,8.902,0.799,13.457
				c1.534,6.683,1.401,6.158,3.666,12.898c2.258,6.721,6.11,12.85,9.763,18.86c3.95,6.5,9.02,12.313,13.915,18.092
				c10.318,12.181,22.75,22.581,35.134,32.564c13.049,10.517,27.123,19.881,41.253,28.868
				C918.03,248.975,918.223,243.566,917.357,243.022z"/>
			<path opacity="0.1797" fill="#43362B" enable-background="new    " d="M914.479,245.82c-9.752-6.11-19.28-12.515-28.642-19.214
				c-10.728-7.679-20.807-16.17-30.598-24.993c-11.386-10.258-21.319-21.951-29.938-34.625c-2.579-4.008-4.872-8.174-6.879-12.496
				c-1.949-6.279-3.899-12.554-5.847-18.828c-0.664-4.293-0.832-8.602-0.495-12.93c0.017-0.958-1.486-0.977-1.503-0.271
				c-0.056,2.162-0.111,4.324-0.167,6.49c0.156,4.387,0.79,8.706,1.905,12.954c0.909,4.47,3.037,9.083,4.759,13.259
				c2.771,6.715,7.071,12.794,11.126,18.761c2.938,4.325,6.622,8.499,9.973,12.491c11.955,14.245,26.667,26.216,41.305,37.555
				c11.389,8.823,23.515,16.771,35.69,24.449c0.429,0.269,1.007-0.376,0.897-0.784C915.879,246.926,915.077,246.196,914.479,245.82z
				"/>
			<path opacity="0.1797" fill="#43362B" enable-background="new    " d="M918.687,245.949
				c-9.875-6.202-19.499-12.708-28.979-19.495c-12.906-9.244-24.924-19.59-36.372-30.57c-9.296-8.911-17.256-18.955-24.425-29.617
				c-3.952-5.875-6.702-12.326-9.326-18.86c-3.277-8.168-3.787-16.89-3.428-25.6c0.039-0.936-1.228-0.224-1.44-0.043
				c-0.617,0.527-1.727,1.396-1.727,2.297c-0.248,4.299-0.002,8.567,0.742,12.809c0.774,6.655,3.779,13.097,6.384,19.167
				c2.845,6.632,7.168,12.625,11.253,18.519c4.399,6.341,9.761,12.019,14.976,17.677c10.801,11.717,23.398,21.785,35.984,31.48
				c11.193,8.618,23.063,16.381,35.021,23.883C918.447,248.283,919.425,246.414,918.687,245.949z"/>
		</g>
	</g>
</g>
<g opacity="0.5">
	<g>
		<g>
			<path opacity="0.1797" fill="#43362B" enable-background="new    " d="M1116.79,324.885c-0.041-4.609,0.877-8.975,2.753-13.09
				c1.318-3.494,4.325-5.849,7.184-7.967c2.979-2.204,7.013-2.779,10.526-3.437c4.15-0.774,8.637-0.192,12.78,0.202
				c3.131,0.399,6.229,0.98,9.289,1.745c10.015,2.182,19.502,6.439,28.631,11.027c9.967,5.004,19.46,11.56,26.35,20.393
				c0.429,0.547,1.153,0.49,1.142-0.332c-0.015-1.123-0.466-3.256-1.198-4.132c-5.54-6.64-12.112-11.391-19.41-15.914
				c-5.682-3.522-11.871-6.168-18.031-8.704c-4.63-1.906-9.615-3.509-14.51-4.586c-4.605-1.015-9.09-1.758-13.794-2.254
				c-5.644-0.598-11.153,0.152-16.606,1.521c-2.368,0.715-4.576,1.767-6.622,3.158c-2.014,1.359-3.715,3.038-5.107,5.03
				c-1.536,2.194-2.642,4.586-3.324,7.183c-1.057,2.92-1.075,6.654-1.268,9.667C1115.517,325.291,1116.721,325.866,1116.79,324.885z
				"/>
			<path opacity="0.1797" fill="#43362B" enable-background="new    " d="M1115.277,324.108c-0.048-4.556,0.843-8.943,2.674-13.164
				c1.712-4.574,6.009-7.536,10.084-9.777c2.272-0.99,4.63-1.688,7.072-2.099c5.6-1.303,11.751-0.411,17.369,0.307
				c8.147,1.043,16.058,3.945,23.664,6.901c13.371,5.197,27.366,13.531,36.392,25c0.53,0.672,1.059-0.522,1.104-0.816
				c0.12-0.771,0.312-1.913-0.234-2.555c-6.516-7.647-14.693-12.992-23.417-17.848c-10.288-5.726-21.632-9.424-33.084-11.928
				c-6.098-1.331-12.275-1.467-18.469-1.145c-3.976,0.209-7.725,1.501-11.392,2.928c-4.961,1.931-8.075,6.208-10.632,10.596
				c-2.337,4.012-2.528,9.408-2.828,13.824C1113.511,325.351,1115.204,325.141,1115.277,324.108z"/>
			<path opacity="0.1797" fill="#43362B" enable-background="new    " d="M1115.707,320.975
				c4.123-16.071,12.37-24.199,24.737-24.383c2.991-0.07,5.968,0.082,8.937,0.458c4.672,0.676,9.263,1.691,13.776,3.042
				c4.762,1.299,9.357,3.187,13.925,5.036c7.445,3.013,14.429,7.012,21.162,11.352c5.471,3.528,10.23,7.866,14.302,12.92
				c0.169,0.212,1.513,0.107,1.427-0.006c-8.029-10.764-19.695-17.602-31.527-23.504c-11.865-5.918-24.835-9.487-38.008-10.638
				c-3.95-0.344-8.892-0.19-12.694,1.081c-1.276,0.307-2.511,0.73-3.7,1.268c-3.66,1.79-2.794,1.278-6.036,3.658
				c-1.992,1.466-4.283,4.638-5.143,6.873c-0.719,1.486-1.284,3.022-1.699,4.609c-1.101,5.251-0.963,4.65-1.343,10.204
				c-0.037,0.516,0.844,0.664,1.131,0.367C1115.484,322.755,1115.66,321.708,1115.707,320.975z"/>
			<path opacity="0.1797" fill="#43362B" enable-background="new    " d="M1116.597,323.327c-0.07-4.543,0.834-8.908,2.711-13.103
				c4.771-12.383,26.169-12.241,34.79-11.083c8.106,1.084,15.983,3.986,23.562,6.926c7.6,2.947,14.713,7.002,21.561,11.381
				c5.538,3.544,10.396,7.932,14.499,13.043c0.354,0.446,1.097,0.073,1.105-0.439c0.006-0.838-0.534-2.077-1.075-2.704
				c-7.737-8.965-17.671-14.93-28.158-20.19c-12.064-6.054-25.326-9.576-38.735-10.698c-6.861-0.575-13.667,0.674-19.922,3.427
				c-3.862,1.704-6.45,4.581-9.005,7.802c-3.753,4.736-4.349,11.713-4.766,17.419
				C1113.059,326.561,1116.531,324.338,1116.597,323.327z"/>
			<path opacity="0.1797" fill="#43362B" enable-background="new    " d="M1117.569,320.128c0.456-7.071,0.972-11.63,6.105-17.462
				c-0.416,0.401-0.835,0.803-1.253,1.204c8.056-6.162,17.052-8.466,26.987-6.91c3.179,0.335,6.337,0.847,9.461,1.54
				c8.319,1.587,16.444,4.972,24.114,8.405c11.646,5.213,23.213,12.608,31.041,22.815c0.123,0.159,1.287-0.793,1.138-0.985
				c-7.214-9.308-16.941-15.478-27.188-21.02c-11.832-6.398-24.896-10.403-38.162-12.329c-5.518-0.803-10.986-0.392-16.441,0.531
				c-3.652,0.616-6.646,2.481-9.581,4.555c-1.65,1.166-3.304,3.063-4.354,4.859c-0.893,1.321-1.678,2.703-2.354,4.141
				c-0.488,1.333-0.976,2.67-1.465,4.006c-0.885,3.154-1.33,6.369-1.337,9.647c-0.043,0.639,0.354,1.233,1.008,0.633
				C1116.055,323.061,1117.497,321.193,1117.569,320.128z"/>
			<path opacity="0.1797" fill="#43362B" enable-background="new    " d="M1114.892,322.625c-0.012-3.303,0.429-6.544,1.324-9.718
				c2.378-11.181,11.158-13.278,19.391-14.52c3.935-0.594,8.109-0.136,12.04,0.18c6.3,0.506,12.359,2.219,18.37,4.021
				c9.511,2.849,18.448,7.384,26.964,12.417c6.937,4.1,13.244,9.088,18.292,15.376c0.519,0.647,2.038,0.212,1.429-0.521
				c-7.28-8.764-16.85-14.681-26.877-19.859c-10.373-5.355-21.285-9.203-32.645-11.849c-5.988-1.392-11.961-1.59-18.059-1.192
				c-3.471,0.231-8.231,1.504-11.098,3.569c-1.855,1.337-4.323,2.855-5.591,4.862c-0.705,1.113-1.407,2.229-2.106,3.344
				c-0.53,1.294-1.06,2.586-1.588,3.882c-0.898,3.196-1.343,6.456-1.334,9.778C1113.371,322.894,1114.862,323.093,1114.892,322.625z
				"/>
			<path opacity="0.1797" fill="#43362B" enable-background="new    " d="M1119.429,321.958c-0.031-3.294,0.425-6.518,1.363-9.673
				c1.455-6.509,6.46-10.113,11.972-12.828c-0.654,0.253-1.312,0.506-1.964,0.759c19.348-6.354,39.942,1.325,57.062,9.55
				c10.21,4.907,19.916,11.659,27.072,20.514c0.583,0.721,1.843-0.082,1.328-0.737c-7.373-9.348-17.29-15.585-27.719-21.117
				c-7.514-3.986-15.602-6.788-23.736-9.183c-4.514-1.328-9.453-2.368-14.152-2.703c-6.164-0.434-12.782-0.674-18.675,1.57
				c-1.224,0.396-2.417,0.87-3.576,1.423c-1.085,0.63-2.172,1.258-3.255,1.888c-2.072,1.438-3.833,3.189-5.279,5.253
				c-0.924,1.098-1.713,2.482-2.202,3.829c-0.48,1.322-0.955,2.643-1.437,3.964c-0.877,3.102-1.316,6.263-1.325,9.484
				C1114.79,325.515,1119.357,323.018,1119.429,321.958z"/>
		</g>
	</g>
</g>
<g opacity="0.5">
	<g>
		<g>
			<path opacity="0.1797" fill="#43362B" enable-background="new    " d="M1147.233,355.474c2.572-1.419,5.313-2.349,8.218-2.789
				c5.614-0.604,10.933,0.177,15.958,2.343c5.638,1.991,10.56,5.93,15.151,9.61c9.252,7.416,16.418,17.604,21.586,28.164
				c0.309,0.629,1.075,0.538,1.175-0.177c0.159-1.113-0.066-2.959-0.59-3.961c-3.511-6.708-7.661-12.62-12.563-18.382
				c-5.15-6.055-11.475-10.875-18.164-15.077c-5.062-3.18-10.69-4.735-16.503-5.687c-1.522-0.177-3.058-0.228-4.598-0.152
				c-4.289-0.113-8.33,1.603-12.138,3.291C1143.277,353.318,1146.41,355.837,1147.233,355.474z"/>
			<path opacity="0.1797" fill="#43362B" enable-background="new    " d="M1145.021,353.571c1.257-0.556,2.517-1.113,3.776-1.669
				c2.65-0.885,5.374-1.366,8.171-1.441c5.542-0.557,11.185,1.856,16.104,4.017c5.558,2.441,10.328,6.632,14.825,10.587
				c7.795,6.851,14.16,16.442,18.604,25.531c0.4,0.829,1.167-0.407,1.255-0.657c0.273-0.779,0.729-1.97,0.305-2.757
				c-2.012-3.734-4.169-7.227-6.595-10.704c-3.627-5.197-8.143-9.699-12.763-13.996c-5.739-5.338-12.519-9.12-19.741-12.005
				c-4.052-1.619-8.354-1.856-12.644-1.982c-4.431-0.129-8.545,1.688-12.468,3.443
				C1142.696,352.452,1144.176,353.944,1145.021,353.571z"/>
			<path opacity="0.1797" fill="#43362B" enable-background="new    " d="M1146.04,351.892c2.599-1.416,5.354-2.374,8.268-2.873
				c2.726-0.401,5.448-0.386,8.166,0.05c2.728,0.465,5.364,1.246,7.905,2.342c4.042,1.464,7.658,4.16,11.134,6.601
				c4.937,3.462,9.107,7.992,13.14,12.421c4.845,5.33,8.603,11.529,11.819,17.931c0.146,0.288,1.378,0.689,1.316,0.56
				c-5.279-11.279-12.532-20.738-21.719-29.163c-5.688-5.216-12.438-8.764-19.668-11.273c-2.727-0.8-5.51-1.208-8.349-1.22
				c-4.471-0.335-8.556,1.46-12.511,3.208C1145.09,350.672,1145.616,352.079,1146.04,351.892z"/>
			<path opacity="0.1797" fill="#43362B" enable-background="new    " d="M1146.812,353.271c3.741-1.998,7.693-3.028,11.857-3.092
				c1.357,0.083,2.714,0.165,4.069,0.246c13.481,3.98,24.498,10.995,33.054,21.046c4.905,5.376,8.712,11.645,11.969,18.113
				c0.247,0.492,1.059,0.269,1.173-0.203c0.187-0.78-0.089-2.023-0.466-2.718c-7.391-13.609-17.681-24.886-31.002-32.875
				c-4.093-2.455-8.554-3.881-13.14-5.095c-4.228-1.119-8.515-0.68-12.765-0.13c-3.189,0.411-5.655,1.732-8.548,3.003
				c-0.92,0.405,0.552,1.223,0.747,1.29C1144.632,353.163,1145.912,353.672,1146.812,353.271z"/>
			<path opacity="0.1797" fill="#43362B" enable-background="new    " d="M1146.915,351.627c7.781-3.478,12.417-3.446,19.837-1.988
				c5.889,1.159,11.202,4.738,16.038,8.067c6.41,4.41,11.546,10.524,16.307,16.583c3.499,4.447,6.202,9.427,8.652,14.5
				c0.095,0.196,1.473-0.386,1.423-0.49c-3.286-6.844-7.272-12.882-12.004-18.815c-3.976-4.985-8.791-9.139-13.755-13.091
				c-2.482-1.884-5.109-3.537-7.884-4.959c-3.896-2.216-8.12-3.231-12.452-4.135c-2.376-0.494-6.524-0.414-8.858,0.189
				c-4.869,1.264-4.02,1.005-8.684,3.091c-0.493,0.218-0.439,0.797-0.152,1.17C1145.738,352.208,1146.521,351.8,1146.915,351.627z"
				/>
			<path opacity="0.1797" fill="#43362B" enable-background="new    " d="M1144.576,353.381c1.366-0.591,2.734-1.186,4.098-1.776
				c6.978-1.96,13.615-1.65,19.907,0.936c5.525,1.84,10.316,5.592,14.792,9.175c9.33,7.469,16.616,17.07,21.924,27.719
				c0.517,1.044,2.134,0.32,1.699-0.505c-3.43-6.52-7.506-12.277-12.245-17.915c-5.893-6.998-13.191-12.556-20.975-17.257
				c-5.011-3.028-10.481-4.227-16.191-4.774c-4.423-0.423-8.571,1.347-12.485,3.066
				C1144.816,352.176,1144.479,353.425,1144.576,353.381z"/>
			<path opacity="0.1797" fill="#43362B" enable-background="new    " d="M1149.367,352.841c3.722-2.077,7.748-3.136,12.081-3.181
				c-0.617,0-1.237,0.003-1.857,0.003c14.205,0.882,24.241,8.349,33.859,17.707c6.539,6.363,11.509,14.197,15.561,22.303
				c0.379,0.76,1.605-0.109,1.244-0.846c-3.3-6.707-7.292-12.647-11.984-18.458c-5.909-7.308-13.327-13.147-21.44-17.779
				c-3.912-2.234-8.518-3.587-12.977-4.201c-1.974-0.275-4.015-0.446-5.995-0.221c-1.413,0.162-2.822,0.323-4.234,0.48
				c-2.895,0.509-5.638,1.461-8.224,2.858c-0.584,0.255-0.81,0.933-0.046,1.189C1146.312,353.018,1148.424,353.264,1149.367,352.841
				z"/>
		</g>
	</g>
</g>
<g opacity="0.5">
	<g>
		<g>
			<path opacity="0.1797" fill="#43362B" enable-background="new    " d="M726.253,248.226
				c-1.997,28.869-23.389,45.696-44.247,60.152c-5.969,4.136-12.256,7.831-18.471,11.581c-13.401,8.079-27.121,15.556-40.146,24.246
				c-0.603,0.402,0.02,1.774,0.628,1.369c13.062-8.719,26.771-16.363,40.297-24.329c10.409-6.13,20.927-12.541,30.363-20.125
				c5.315-4.274,10.259-8.674,15.098-13.479c4.632-4.6,8.124-9.923,11.509-15.436c2.38-3.879,3.569-7.919,4.985-12.174
				c1.561-4.685,1.676-9.072,2.016-13.932c0.04-0.543-0.796-0.739-1.117-0.401C726.604,246.285,726.307,247.435,726.253,248.226z"/>
			<path opacity="0.1797" fill="#43362B" enable-background="new    " d="M724.555,247.034c-0.017,6.199-1.211,12.197-3.587,17.994
				c-2.005,5.896-6.043,11.046-9.711,15.949c-2.778,3.382-5.772,6.562-8.98,9.543c-4.892,4.862-10.615,8.94-16.131,13.04
				c-9.606,7.136-20.08,13.158-30.368,19.237c-11.369,6.717-22.813,13.239-33.805,20.576c-0.459,0.307-0.643,0.981,0.055,1.189
				c0.769,0.228,2.713,0.307,3.409-0.155c11.051-7.375,22.494-14.092,33.925-20.857c12.555-7.432,24.704-15.338,36.267-24.24
				c5.507-4.236,10.422-9.088,15.219-14.09c4.561-4.751,7.956-10.277,11.24-15.927c2.192-3.771,3.204-7.63,4.52-11.728
				c1.423-4.429,1.501-8.406,1.832-12.983c0.076-1.04-1.338-0.214-1.569-0.044C726.169,245.055,724.624,246.041,724.555,247.034z"/>
			<path opacity="0.1797" fill="#43362B" enable-background="new    " d="M725.112,244.369c-0.141,6.272-1.364,12.291-3.668,18.057
				c-1.957,5.883-5.961,11.033-9.604,15.926c-2.768,3.396-5.761,6.579-8.98,9.554c-6.675,6.623-14.671,11.927-22.407,17.209
				c-18.881,12.901-39.61,22.859-58.633,35.558c-1.352,0.9,1.925,2.87,2.652,2.383c11.041-7.378,22.467-14.105,33.88-20.883
				c12.329-7.325,24.279-15.098,35.636-23.858c7.184-5.539,13.334-11.811,19.173-18.712c4.102-4.846,6.843-10.451,9.463-16.163
				c2.696-5.876,3.186-12.234,3.63-18.543C726.313,244.04,725.185,243.382,725.112,244.369z"/>
			<path opacity="0.1797" fill="#43362B" enable-background="new    " d="M726.59,245.576c-0.012,4.265-0.578,8.454-1.698,12.566
				c-2.81,10.116-8.069,19.037-15.774,26.769c-3.056,3.282-6.299,6.361-9.732,9.241c-5.256,4.698-11.118,8.713-16.875,12.752
				c-9.803,6.88-20.288,12.829-30.606,18.883c-9.367,5.494-18.667,11.061-27.7,17.089c-1.432,0.955,1.208,2.023,1.999,1.496
				c9.096-6.069,18.428-11.738,27.84-17.299c12.566-7.425,24.896-15.095,36.738-23.64c9.45-6.822,17.712-14.819,25.112-23.785
				c4.134-5.008,6.873-10.809,9.489-16.676c2.613-5.864,3.148-12.316,3.591-18.606c0.03-0.462-0.492-0.946-0.954-0.712
				C727.499,243.92,726.632,244.973,726.59,245.576z"/>
			<path opacity="0.1797" fill="#43362B" enable-background="new    " d="M726.15,244.208c-0.185,8.548-2.272,16.464-6.263,23.75
				c-3.096,5.557-6.86,10.638-11.295,15.247c-3.05,3.218-6.271,6.25-9.669,9.094c-5.241,4.651-11.056,8.643-16.785,12.655
				c-18.755,13.135-39.469,23.232-58.506,35.943c-0.994,0.664,0.061,2.166,0.822,1.657c11.024-7.376,22.464-14.055,33.857-20.839
				c12.286-7.312,24.211-15.044,35.596-23.7c8.801-6.689,16.233-14.624,22.916-23.364c3.824-5.001,6.039-10.793,8.099-16.654
				c1.47-4.189,1.479-8.358,1.792-12.711C726.733,245.039,726.193,243.629,726.15,244.208z"/>
			<path opacity="0.1797" fill="#43362B" enable-background="new    " d="M723.192,245.972c-0.012,4.28-0.608,8.479-1.788,12.591
				c-1.146,4-2.754,7.806-4.82,11.416c-2.109,3.686-4.538,7.144-7.292,10.377c-3.071,3.171-6.146,6.342-9.219,9.512
				c-7.062,6.212-14.523,11.883-22.378,17.011c-18.918,12.844-39.604,22.855-58.632,35.542c-0.997,0.663,1.086,1.204,1.243,1.235
				c1.012,0.203,3.119,0.822,4.085,0.178c9.066-6.048,18.366-11.697,27.757-17.226c12.499-7.359,24.783-14.934,36.592-23.365
				c3.812-2.797,7.499-5.753,11.058-8.864c5.211-4.366,9.615-9.241,13.976-14.425c4.131-4.909,6.882-10.603,9.506-16.387
				c2.622-5.782,3.15-12.146,3.583-18.364C726.976,243.569,723.257,245.09,723.192,245.972z"/>
			<path opacity="0.1797" fill="#43362B" enable-background="new    " d="M727.05,245.953c-0.028,4.264-0.602,8.457-1.725,12.572
				c-1.226,5.982-4.785,11.413-7.96,16.479c-3.381,5.397-8.206,9.921-12.7,14.349c-4.869,4.792-10.423,8.855-15.881,12.932
				c-11.437,8.549-24.03,15.627-36.329,22.834c-9.396,5.503-18.723,11.026-27.781,17.071c-0.192,0.129-1.021,1.366-0.572,1.065
				c10.967-7.328,22.403-13.847,33.829-20.419c10.476-6.025,20.751-12.297,30.776-19.05c9.646-6.499,18.195-14.118,25.946-22.757
				c4.312-4.802,7.245-10.407,10.042-16.151c2.829-5.808,3.349-12.206,3.803-18.512C728.52,246.035,727.063,245.763,727.05,245.953z
				"/>
		</g>
	</g>
</g>
<g opacity="0.5">
	<g>
		<g>
			<path opacity="0.1797" fill="#43362B" enable-background="new    " d="M776.838,251.32
				c-11.82,18.648-22.412,38.011-33.897,56.864c-7.77,12.759-16.769,24.364-26.851,35.491c-8.957,9.885-19.771,17.789-30.664,25.35
				c-0.797,0.553,0.07,1.783,0.864,1.23c5.831-3.797,11.42-7.919,16.771-12.36c4.938-4.11,9.624-8.486,14.062-13.129
				c6.566-6.493,12.093-14.026,17.592-21.404c7.155-9.604,13.13-20.128,19.185-30.434c8.11-13.805,15.968-27.701,24.559-41.219
				c0.273-0.43-0.028-0.856-0.436-1.068C777.564,250.4,777.054,250.976,776.838,251.32z"/>
			<path opacity="0.1797" fill="#43362B" enable-background="new    " d="M775.007,250.685
				c-11.846,18.661-22.442,38.046-33.943,56.916c-7.769,12.746-16.831,24.389-26.827,35.422
				c-8.912,9.837-19.665,17.707-30.499,25.239c-0.505,0.348-0.467,1.079,0.227,1.167c0.934,0.117,2.751-0.136,3.533-0.689
				c5.798-3.85,11.356-8.02,16.673-12.508c4.909-4.151,9.571-8.564,13.984-13.24c6.44-6.452,12.361-14.001,17.504-21.519
				c6.789-9.926,13.072-20.077,19.169-30.442c8.105-13.773,15.928-27.645,24.665-41.037c0.582-0.892-1.223-0.708-1.412-0.667
				C777.163,249.54,775.563,249.812,775.007,250.685z"/>
			<path opacity="0.1797" fill="#43362B" enable-background="new    " d="M775.577,247.919
				c-13.435,21.143-25.171,43.284-38.72,64.354c-6.533,10.157-14.212,19.349-22.324,28.259c-8.96,9.837-19.778,17.677-30.673,25.182
				c-1.225,0.844,1.677,2.289,2.431,1.754c5.766-3.832,11.293-7.979,16.584-12.446c4.883-4.132,9.518-8.525,13.908-13.179
				c8.499-8.522,15.441-18.556,22.212-28.448c6.816-9.958,12.699-20.595,18.737-31.034c6.441-11.134,12.971-22.176,19.882-33.025
				C778.38,248.134,776.029,247.21,775.577,247.919z"/>
			<path opacity="0.1797" fill="#43362B" enable-background="new    " d="M777.533,249.557
				c-13.539,21.082-25.276,43.233-38.809,64.318c-6.52,10.164-14.163,19.392-22.234,28.338
				c-8.911,9.875-19.654,17.794-30.489,25.374c-0.369,0.26-0.314,1.006,0.108,1.187c0.524,0.224,1.721,0.132,2.19-0.203
				c5.801-3.87,11.36-8.054,16.679-12.563c4.909-4.167,9.568-8.595,13.982-13.283c8.522-8.573,15.489-18.646,22.284-28.581
				c6.812-9.965,12.698-20.602,18.736-31.041c6.452-11.152,12.983-22.195,20.002-33
				C780.924,248.655,778.048,248.754,777.533,249.557z"/>
			<path opacity="0.1797" fill="#43362B" enable-background="new    " d="M776.938,247.963
				c-13.587,20.94-25.203,43.057-38.683,64.066c-6.51,10.147-14.139,19.359-22.196,28.293c-8.886,9.85-19.607,17.748-30.418,25.306
				c-0.283,0.196-0.675,0.636-0.604,1.024c0.044,0.237,0.642,0.698,0.89,0.521c5.756-3.806,11.273-7.928,16.557-12.366
				c4.876-4.106,9.508-8.472,13.895-13.101c8.502-8.488,15.446-18.489,22.211-28.355c5.128-7.48,9.702-15.417,14.24-23.267
				c7.995-13.837,15.947-27.664,24.587-41.112c0.155-0.234,0.514-0.771,0.264-1.053
				C777.452,247.666,777.121,247.682,776.938,247.963z"/>
			<path opacity="0.1797" fill="#43362B" enable-background="new    " d="M772.776,249.623
				c-13.399,21.199-25.15,43.37-38.728,64.458c-6.542,10.154-14.246,19.337-22.375,28.233c-8.972,9.815-19.792,17.644-30.683,25.138
				c-1.011,0.699,1.313,1.088,1.355,1.091c1.118,0.096,3.038,0.415,4.031-0.288c5.788-3.833,11.339-7.991,16.649-12.466
				c4.903-4.139,9.557-8.542,13.962-13.205c8.521-8.532,15.483-18.582,22.269-28.489c6.82-9.958,12.703-20.602,18.739-31.041
				c6.45-11.156,12.965-22.214,19.997-33.012C778.85,248.728,773.358,248.7,772.776,249.623z"/>
			<path opacity="0.1797" fill="#43362B" enable-background="new    " d="M777.852,249.121
				c-13.458,21.18-25.243,43.343-38.807,64.454c-6.508,10.132-14.149,19.318-22.215,28.224
				c-8.884,9.809-19.599,17.665-30.396,25.188c-0.258,0.181-0.376,1.447-0.302,1.395c5.822-3.736,11.412-7.796,16.765-12.181
				c4.942-4.057,9.639-8.384,14.084-12.984c8.61-8.412,15.619-18.404,22.428-28.261c6.86-9.929,12.722-20.593,18.734-31.044
				c6.478-11.259,13.033-22.428,20.006-33.392C778.316,250.256,777.903,249.039,777.852,249.121z"/>
		</g>
	</g>
</g>
</svg>
